<svg width="186" height="300" viewBox="0 0 186 300" fill="none" xmlns="http://www.w3.org/2000/svg">
<mask id="path-1-inside-1" fill="white">
<path fill-rule="evenodd" clip-rule="evenodd" d="M0 16C0 7.16345 7.16344 0 16 0H170C178.837 0 186 7.16344 186 16V118.5V134V177C186 215.398 164.138 244.158 145.558 268.599C137.042 279.803 129.215 290.099 124.5 300H110H76H61.5C56.7852 290.099 48.9583 279.803 40.4416 268.599C21.8624 244.158 0 215.398 0 177V134V118.5V16Z"/>
</mask>
<path d="M145.558 268.599L143.966 267.389L143.966 267.389L145.558 268.599ZM124.5 300V302H125.763L126.306 300.86L124.5 300ZM61.5 300L59.6943 300.86L60.2372 302H61.5V300ZM40.4416 268.599L42.0338 267.389L42.0338 267.389L40.4416 268.599ZM16 -2C6.05887 -2 -2 6.05888 -2 16H2C2 8.26802 8.26801 2 16 2V-2ZM170 -2H16V2H170V-2ZM188 16C188 6.05888 179.941 -2 170 -2V2C177.732 2 184 8.26801 184 16H188ZM188 118.5V16H184V118.5H188ZM188 134V118.5H184V134H188ZM188 177V134H184V177H188ZM147.151 269.809C165.677 245.438 188 216.166 188 177H184C184 214.63 162.599 242.878 143.966 267.389L147.151 269.809ZM126.306 300.86C130.913 291.184 138.595 281.065 147.151 269.809L143.966 267.389C135.489 278.541 127.516 289.014 122.694 299.14L126.306 300.86ZM110 302H124.5V298H110V302ZM110 298H76V302H110V298ZM76 298H61.5V302H76V298ZM63.3057 299.14C58.4836 289.014 50.5114 278.541 42.0338 267.389L38.8494 269.809C47.4053 281.065 55.0868 291.184 59.6943 300.86L63.3057 299.14ZM42.0338 267.389C23.4013 242.878 2 214.63 2 177H-2C-2 216.166 20.3234 245.438 38.8494 269.809L42.0338 267.389ZM2 177V134H-2V177H2ZM2 134V118.5H-2V134H2ZM-2 16V118.5H2V16H-2Z" fill="black" mask="url(#path-1-inside-1)"/>
<rect x="27" y="47" width="132" height="133" rx="6" stroke="black" stroke-opacity="0.25" stroke-width="2"/>
<path d="M65.6155 34.7616V23.3758H61.4554V19.293H74.4262V23.3758H70.307V34.7616H65.6155Z" fill="black" fill-opacity="0.1"/>
<path d="M84.9354 34.7616L82.8009 29.8975H81.1023V34.7616H76.4109V19.293H84.6675C88.2916 19.293 90.2354 21.6955 90.2354 24.593C90.2354 27.2634 88.6913 28.6759 87.4515 29.2844L90.2536 34.757H84.9354V34.7616ZM85.4895 24.593C85.4895 23.7528 84.7447 23.3895 83.9635 23.3895H81.1023V25.8328H83.9635C84.7447 25.8147 85.4895 25.4513 85.4895 24.593Z" fill="black" fill-opacity="0.1"/>
<path d="M92.697 34.7616V19.293H104.428V23.3758H97.3703V24.9018H104.255V28.9847H97.3703V30.6832H104.428V34.7616H92.697Z" fill="black" fill-opacity="0.1"/>
<path d="M106.867 34.7798V31.0602L112.762 23.394H106.867V19.3112H118.938V22.9944L113.025 30.7014H119.111V34.7843L106.867 34.7798Z" fill="black" fill-opacity="0.1"/>
<path d="M120.255 27.0545C120.255 22.304 123.938 19.0432 128.725 19.0432C133.494 19.0432 137.195 22.2858 137.195 27.0545C137.195 31.805 133.512 35.0477 128.725 35.0477C123.938 35.0477 120.255 31.805 120.255 27.0545ZM132.427 27.0545C132.427 24.8972 130.96 23.1805 128.707 23.1805C126.455 23.1805 124.988 24.8972 124.988 27.0545C124.988 29.2117 126.455 30.9285 128.707 30.9285C130.978 30.9285 132.427 29.2117 132.427 27.0545Z" fill="black" fill-opacity="0.1"/>
<path d="M147.682 34.7798L145.547 29.9157H143.849V34.7798H139.157V19.3112H147.414C151.038 19.3112 152.982 21.7137 152.982 24.6112C152.982 27.2816 151.438 28.6941 150.198 29.3026L153 34.7752H147.682V34.7798ZM148.254 24.593C148.254 23.7528 147.509 23.3895 146.728 23.3895H143.867V25.8329H146.728C147.514 25.8147 148.254 25.4514 148.254 24.593Z" fill="black" fill-opacity="0.1"/>
<path d="M42.5169 9C38.3313 9 34.9439 12.3874 34.9439 16.573V19.4113C33.4741 19.6774 32 20.0322 32 20.4926V35.3049C32 35.3049 32 35.7146 32.4604 35.9089C34.1287 36.5847 40.6923 38.9077 42.2001 39.4399C42.3944 39.5117 42.4493 39.5117 42.5 39.5117C42.5718 39.5117 42.6056 39.5117 42.7999 39.4399C44.3077 38.9077 50.8882 36.5847 52.5565 35.9089C52.9831 35.7315 53 35.3218 53 35.3218V20.4926C53 20.0322 51.5471 19.6605 50.073 19.4113V16.573C50.0941 12.3874 46.6856 9 42.5169 9ZM42.5169 12.6197C44.9835 12.6197 46.4745 14.1106 46.4745 16.5772V19.0438C43.708 18.8496 41.3469 18.8496 38.5636 19.0438V16.5772C38.5636 14.1064 40.0545 12.6197 42.5169 12.6197ZM42.5 22.6762C45.9423 22.6762 48.8313 22.9423 48.8313 23.4195V32.6609C48.8313 32.8045 48.8144 32.8214 48.6877 32.8721C48.5652 32.927 42.8168 35.0008 42.8168 35.0008C42.8168 35.0008 42.5845 35.0726 42.5169 35.0726C42.4451 35.0726 42.217 34.9839 42.217 34.9839C42.217 34.9839 36.4686 32.9101 36.3461 32.8552C36.2237 32.8003 36.2025 32.7834 36.2025 32.644V23.4027C36.1687 22.9254 39.0577 22.6762 42.5 22.6762Z" fill="black" fill-opacity="0.1"/>
</svg>
