<svg width="123" height="300" viewBox="0 0 123 300" fill="none" xmlns="http://www.w3.org/2000/svg">
<g clip-path="url(#clip0)">
<rect x="1.1814" y="0.9375" width="120.125" height="298.125" stroke="black" stroke-width="1.875"/>
<path d="M38.3259 269.034L38.3259 266.513L51.9899 266.513L46.2499 260.801L46.2499 257.301L52.2699 263.489L59.4939 256.769L59.4939 260.353L52.6059 266.513L59.4939 266.513L59.4939 269.033L38.3259 269.034ZM53.7819 252.61C54.3606 252.61 54.8926 252.489 55.3779 252.246C55.8446 251.985 56.2459 251.649 56.5819 251.238C56.9179 250.827 57.1792 250.351 57.3659 249.81C57.5526 249.269 57.6459 248.709 57.6459 248.13C57.6459 247.346 57.4686 246.665 57.1139 246.086C56.7406 245.507 56.2552 244.975 55.6579 244.49L57.1139 242.586C58.9246 243.986 59.8299 245.946 59.8299 248.466C59.8299 249.511 59.6526 250.463 59.2979 251.322C58.9432 252.162 58.4579 252.881 57.8419 253.478C57.2072 254.057 56.4699 254.505 55.6299 254.822C54.7712 255.139 53.8472 255.298 52.8579 255.298C51.8686 255.298 50.9539 255.13 50.1139 254.794C49.2552 254.439 48.5179 253.963 47.9019 253.366C47.2672 252.75 46.7726 252.022 46.4179 251.182C46.0632 250.342 45.8859 249.427 45.8859 248.438C45.8859 247.262 46.0912 246.273 46.5019 245.47C46.9126 244.649 47.4539 243.977 48.1259 243.454C48.7792 242.931 49.5259 242.558 50.3659 242.334C51.1872 242.091 52.0272 241.97 52.8859 241.97L53.7819 241.97L53.7819 252.61ZM51.7659 244.658C51.2059 244.677 50.6926 244.77 50.2259 244.938C49.7592 245.087 49.3579 245.321 49.0219 245.638C48.6672 245.955 48.3966 246.357 48.2099 246.842C48.0046 247.309 47.9019 247.859 47.9019 248.494C47.9019 249.11 48.0232 249.679 48.2659 250.202C48.4899 250.706 48.7886 251.135 49.1619 251.49C49.5352 251.845 49.9552 252.125 50.4219 252.33C50.8699 252.517 51.3179 252.61 51.7659 252.61L51.7659 244.658ZM53.7819 237.051C54.3606 237.051 54.8926 236.93 55.3779 236.687C55.8446 236.426 56.2459 236.09 56.5819 235.679C56.9179 235.269 57.1792 234.793 57.3659 234.251C57.5526 233.71 57.6459 233.15 57.6459 232.571C57.6459 231.787 57.4686 231.106 57.1139 230.527C56.7406 229.949 56.2552 229.417 55.6579 228.931L57.1139 227.027C58.9246 228.427 59.8299 230.387 59.8299 232.907C59.8299 233.953 59.6526 234.905 59.2979 235.763C58.9432 236.603 58.4579 237.322 57.8419 237.919C57.2072 238.498 56.4699 238.946 55.6299 239.263C54.7712 239.581 53.8472 239.739 52.8579 239.739C51.8686 239.739 50.9539 239.571 50.1139 239.235C49.2552 238.881 48.5179 238.405 47.9019 237.807C47.2672 237.191 46.7726 236.463 46.4179 235.623C46.0632 234.783 45.8859 233.869 45.8859 232.879C45.8859 231.703 46.0912 230.714 46.5019 229.911C46.9126 229.09 47.4539 228.418 48.1259 227.895C48.7792 227.373 49.5259 226.999 50.3659 226.775C51.1872 226.533 52.0272 226.411 52.8859 226.411L53.7819 226.411L53.7819 237.051ZM51.7659 229.099C51.2059 229.118 50.6926 229.211 50.2259 229.379C49.7592 229.529 49.3579 229.762 49.0219 230.079C48.6672 230.397 48.3966 230.798 48.2099 231.283C48.0046 231.75 47.9019 232.301 47.9019 232.935C47.9019 233.551 48.0232 234.121 48.2659 234.643C48.4899 235.147 48.7886 235.577 49.1619 235.931C49.5352 236.286 49.9552 236.566 50.4219 236.771C50.8699 236.958 51.3179 237.051 51.7659 237.051L51.7659 229.099ZM46.2219 223.397L46.2219 220.877L48.1259 220.877L48.1259 220.821C47.4166 220.335 46.8659 219.673 46.4739 218.833C46.0819 217.974 45.8859 217.097 45.8859 216.201C45.8859 215.174 46.0632 214.25 46.4179 213.429C46.7726 212.589 47.2672 211.879 47.9019 211.301C48.5366 210.703 49.2832 210.246 50.1419 209.929C50.9819 209.611 51.8872 209.453 52.8579 209.453C53.8472 209.453 54.7712 209.611 55.6299 209.929C56.4699 210.246 57.2072 210.703 57.8419 211.301C58.4579 211.879 58.9432 212.589 59.2979 213.429C59.6526 214.25 59.8299 215.174 59.8299 216.201C59.8299 217.153 59.6339 218.049 59.2419 218.889C58.8312 219.729 58.2806 220.373 57.5899 220.821L57.5899 220.877L67.3899 220.877L67.3899 223.397L46.2219 223.397ZM48.2379 216.509C48.2379 217.181 48.3592 217.787 48.6019 218.329C48.8259 218.87 49.1432 219.327 49.5539 219.701C49.9459 220.074 50.4312 220.363 51.0099 220.569C51.5699 220.774 52.1859 220.877 52.8579 220.877C53.5299 220.877 54.1552 220.774 54.7339 220.569C55.2939 220.363 55.7792 220.074 56.1899 219.701C56.5819 219.327 56.8992 218.87 57.1419 218.329C57.3659 217.787 57.4779 217.181 57.4779 216.509C57.4779 215.837 57.3659 215.23 57.1419 214.689C56.8992 214.147 56.5819 213.69 56.1899 213.317C55.7792 212.943 55.2939 212.654 54.7339 212.449C54.1552 212.243 53.5299 212.141 52.8579 212.141C52.1859 212.141 51.5699 212.243 51.0099 212.449C50.4312 212.654 49.9459 212.943 49.5539 213.317C49.1432 213.69 48.8259 214.147 48.6019 214.689C48.3592 215.23 48.2379 215.837 48.2379 216.509ZM56.3259 269.033L56.3259 266.513L69.9899 266.513L64.2499 260.801L64.2499 257.301L70.2699 263.489L77.4939 256.769L77.4939 260.353L70.6059 266.513L77.4939 266.513L77.4939 269.033L56.3259 269.033ZM71.7819 252.61C72.3606 252.61 72.8926 252.489 73.3779 252.246C73.8446 251.985 74.2459 251.649 74.5819 251.238C74.9179 250.827 75.1792 250.351 75.3659 249.81C75.5526 249.269 75.6459 248.709 75.6459 248.13C75.6459 247.346 75.4686 246.665 75.1139 246.086C74.7406 245.507 74.2552 244.975 73.6579 244.49L75.1139 242.586C76.9246 243.986 77.8299 245.946 77.8299 248.466C77.8299 249.511 77.6526 250.463 77.2979 251.322C76.9432 252.162 76.4579 252.881 75.8419 253.478C75.2072 254.057 74.4699 254.505 73.6299 254.822C72.7712 255.139 71.8472 255.298 70.8579 255.298C69.8686 255.298 68.9539 255.13 68.1139 254.794C67.2552 254.439 66.5179 253.963 65.9019 253.366C65.2672 252.75 64.7726 252.022 64.4179 251.182C64.0632 250.342 63.8859 249.427 63.8859 248.438C63.8859 247.262 64.0912 246.273 64.5019 245.47C64.9126 244.649 65.4539 243.977 66.1259 243.454C66.7792 242.931 67.5259 242.558 68.3659 242.334C69.1872 242.091 70.0272 241.97 70.8859 241.97L71.7819 241.97L71.7819 252.61ZM69.7659 244.658C69.2059 244.677 68.6926 244.77 68.2259 244.938C67.7592 245.087 67.3579 245.321 67.0219 245.638C66.6672 245.955 66.3966 246.357 66.2099 246.842C66.0046 247.309 65.9019 247.859 65.9019 248.494C65.9019 249.11 66.0232 249.679 66.2659 250.202C66.4899 250.706 66.7886 251.135 67.1619 251.49C67.5352 251.845 67.9552 252.125 68.4219 252.33C68.8699 252.517 69.3179 252.61 69.7659 252.61L69.7659 244.658ZM64.2219 240.551L64.2219 237.639L74.5819 233.691L74.5819 233.635L64.2219 229.883L64.2219 227.167L80.3499 233.467C80.9286 233.691 81.4512 233.925 81.9179 234.167C82.4032 234.41 82.8139 234.699 83.1499 235.035C83.4859 235.371 83.7472 235.782 83.9339 236.267C84.1206 236.734 84.2139 237.313 84.2139 238.003C84.2139 238.377 84.1859 238.759 84.1299 239.151C84.0926 239.525 83.9992 239.889 83.8499 240.243L81.5539 239.935C81.7592 239.431 81.8619 238.927 81.8619 238.423C81.8619 238.031 81.8059 237.705 81.6939 237.443C81.6006 237.163 81.4512 236.93 81.2459 236.743C81.0592 236.538 80.8352 236.37 80.5739 236.239C80.3126 236.109 80.0139 235.978 79.6779 235.847L77.5779 235.035L64.2219 240.551Z" fill="black" fill-opacity="0.1"/>
</g>
<defs>
<clipPath id="clip0">
<rect width="122" height="300" fill="white" transform="translate(0.243896)"/>
</clipPath>
</defs>
</svg>
