<svg width="30" height="30" viewBox="0 0 30 30" fill="none" xmlns="http://www.w3.org/2000/svg">
<path d="M11 12C11 9.79086 12.7909 8 15 8C17.2091 8 19 9.79086 19 12V16H11V12Z" stroke="black" stroke-width="2"/>
<path fill-rule="evenodd" clip-rule="evenodd" d="M9 14C8.44772 14 8 14.4477 8 15V23C8 23.5523 8.44772 24 9 24H21C21.5523 24 22 23.5523 22 23V15C22 14.4477 21.5523 14 21 14H9ZM15 21C16.1046 21 17 20.1046 17 19C17 17.8954 16.1046 17 15 17C13.8954 17 13 17.8954 13 19C13 20.1046 13.8954 21 15 21Z" fill="black"/>
</svg>
