<svg width="106" height="300" viewBox="0 0 106 300" fill="none" xmlns="http://www.w3.org/2000/svg">
<g clip-path="url(#clip0)">
<path d="M1.75061 16.5C1.75061 11.754 4.78293 7.90732 9.84783 5.19398C14.9143 2.47978 21.8657 1 29.2506 1H77.2506C84.6355 1 91.5869 2.47978 96.6534 5.19398C101.718 7.90732 104.751 11.754 104.751 16.5V278.5C104.751 285.116 101.461 290.203 96.3745 293.674C91.262 297.163 84.3449 299 77.2506 299H29.2506C22.1563 299 15.2392 297.163 10.1267 293.674C5.04013 290.203 1.75061 285.116 1.75061 278.5V16.5Z" stroke="black" stroke-width="2"/>
<rect x="11.2506" y="201" width="22" height="13" rx="2" stroke="black" stroke-opacity="0.25" stroke-width="2"/>
<rect x="42.2506" y="201" width="22" height="13" rx="2" stroke="black" stroke-opacity="0.25" stroke-width="2"/>
<rect x="73.2506" y="201" width="22" height="13" rx="2" stroke="black" stroke-opacity="0.25" stroke-width="2"/>
<rect x="11.2506" y="221" width="22" height="13" rx="2" stroke="black" stroke-opacity="0.25" stroke-width="2"/>
<rect x="42.2506" y="221" width="22" height="13" rx="2" stroke="black" stroke-opacity="0.25" stroke-width="2"/>
<rect x="73.2506" y="221" width="22" height="13" rx="2" stroke="black" stroke-opacity="0.25" stroke-width="2"/>
<rect x="11.2506" y="241" width="22" height="13" rx="2" stroke="black" stroke-opacity="0.25" stroke-width="2"/>
<rect x="42.2506" y="241" width="22" height="13" rx="2" stroke="black" stroke-opacity="0.25" stroke-width="2"/>
<rect x="73.2506" y="241" width="22" height="13" rx="2" stroke="black" stroke-opacity="0.25" stroke-width="2"/>
<rect x="11.2506" y="261" width="22" height="13" rx="2" stroke="black" stroke-opacity="0.25" stroke-width="2"/>
<rect x="42.2506" y="261" width="22" height="13" rx="2" stroke="black" stroke-opacity="0.25" stroke-width="2"/>
<rect x="73.2506" y="261" width="22" height="13" rx="2" stroke="black" stroke-opacity="0.25" stroke-width="2"/>
<rect x="82.7506" y="151" width="13" height="22" rx="5" stroke="black" stroke-opacity="0.25" stroke-width="2"/>
<rect x="32.7506" y="140" width="42" height="43" rx="15" stroke="black" stroke-opacity="0.25" stroke-width="2"/>
<rect x="10.7506" y="151" width="13" height="22" rx="5" stroke="black" stroke-opacity="0.25" stroke-width="2"/>
<rect x="14.7506" y="22" width="77" height="102" rx="4" stroke="black" stroke-opacity="0.25" stroke-width="2"/>
<line x1="47.7506" y1="11" x2="58.7506" y2="11" stroke="black" stroke-opacity="0.25" stroke-width="2" stroke-linecap="round" stroke-linejoin="round"/>
</g>
<defs>
<clipPath id="clip0">
<rect width="105" height="300" fill="white" transform="translate(0.75061)"/>
</clipPath>
</defs>
</svg>
