<svg width="30" height="30" viewBox="0 0 30 30" fill="none" xmlns="http://www.w3.org/2000/svg">
<path d="M21.6667 21.7V21.7167H8.33333V21.7C8.33333 20.6158 8.81159 19.872 9.46961 19.3145C10.1413 18.7454 10.9885 18.3807 11.7077 18.0732L11.7077 18.0732L11.715 18.0701C12.0042 17.9464 12.3465 17.8001 12.6171 17.6546C12.7525 17.5819 12.8859 17.5011 12.9897 17.4144C13.0417 17.371 13.097 17.3174 13.1415 17.2531C13.1853 17.1897 13.2333 17.0944 13.2333 16.975V15.4059V15.2396L13.1005 15.1396C12.3161 14.5492 11.8333 13.5896 11.8333 12.6V10.5C11.8333 8.75419 13.2542 7.33333 15 7.33333C16.7458 7.33333 18.1667 8.75419 18.1667 10.5V12.6C18.1667 13.5899 17.6839 14.5492 16.8995 15.1396L16.7667 15.2396V15.4059V16.975C16.7667 17.092 16.8116 17.1872 16.8559 17.2536C16.9004 17.3201 16.9561 17.3756 17.0091 17.4206C17.1146 17.5104 17.2501 17.5929 17.3872 17.6665C17.6614 17.8138 18.0081 17.9597 18.3002 18.0826L18.3068 18.0854C19.0235 18.3875 19.8667 18.7454 20.5352 19.3105C21.1895 19.8636 21.6667 20.607 21.6667 21.7Z" fill="black" stroke="black" stroke-width="0.666667"/>
</svg>
