<svg width="47" height="75" viewBox="0 0 47 75" fill="none" xmlns="http://www.w3.org/2000/svg">
<g clip-path="url(#clip0)">
<mask id="path-1-inside-1" fill="white">
<path fill-rule="evenodd" clip-rule="evenodd" d="M0 4C0 1.79086 1.79086 0 4 0H42.5C44.7091 0 46.5 1.79086 46.5 4V33.5L46.5 33.5079V44.25C46.5 53.8495 41.0344 61.0395 36.3896 67.1497C34.2604 69.9506 32.3037 72.5247 31.125 75H27.5H19H15.375C14.1963 72.5247 12.2395 69.9506 10.1104 67.1497C5.46556 61.0395 -3.62396e-05 53.8495 -3.62396e-05 44.25V29.625H0V4Z"/>
</mask>
<path d="M46.5 33.5L48.5 33.5019V33.5H46.5ZM46.5 33.5079L44.5 33.506V33.5079H46.5ZM36.3896 67.1497L34.7974 65.9394L34.7974 65.9394L36.3896 67.1497ZM31.125 75V77H32.3878L32.9307 75.8598L31.125 75ZM15.375 75L13.5692 75.8598L14.1122 77H15.375V75ZM10.1104 67.1497L11.7026 65.9394L11.7026 65.9394L10.1104 67.1497ZM-3.62396e-05 29.625V27.625H-2.00004V29.625H-3.62396e-05ZM0 29.625V31.625H2V29.625H0ZM4 -2C0.686291 -2 -2 0.686293 -2 4H2C2 2.89543 2.89543 2 4 2V-2ZM42.5 -2H4V2H42.5V-2ZM48.5 4C48.5 0.686292 45.8137 -2 42.5 -2V2C43.6046 2 44.5 2.89543 44.5 4H48.5ZM48.5 33.5V4H44.5V33.5H48.5ZM48.5 33.5098L48.5 33.5019L44.5 33.4981L44.5 33.506L48.5 33.5098ZM48.5 44.25V33.5079H44.5V44.25H48.5ZM37.9818 68.36C42.5734 62.3198 48.5 54.6175 48.5 44.25H44.5C44.5 53.0815 39.4954 59.7591 34.7974 65.9394L37.9818 68.36ZM32.9307 75.8598C34.0021 73.6099 35.8135 71.2124 37.9818 68.36L34.7974 65.9394C32.7073 68.6889 30.6053 71.4395 29.3193 74.1401L32.9307 75.8598ZM27.5 77H31.125V73H27.5V77ZM27.5 73H19V77H27.5V73ZM19 73H15.375V77H19V73ZM17.1807 74.1401C15.8947 71.4395 13.7926 68.6889 11.7026 65.9394L8.51816 68.36C10.6865 71.2124 12.4979 73.6099 13.5692 75.8598L17.1807 74.1401ZM11.7026 65.9394C7.00453 59.7591 1.99996 53.0815 1.99996 44.25H-2.00004C-2.00004 54.6175 3.92659 62.3198 8.51816 68.36L11.7026 65.9394ZM1.99996 44.25V29.625H-2.00004V44.25H1.99996ZM-3.62396e-05 31.625H0V27.625H-3.62396e-05V31.625ZM-2 4V29.625H2V4H-2Z" fill="black" mask="url(#path-1-inside-1)"/>
<mask id="path-3-inside-2" fill="white">
<rect x="6.5" y="15" width="33.5" height="32" rx="1.75"/>
</mask>
<rect x="6.5" y="15" width="33.5" height="32" rx="1.75" stroke="black" stroke-opacity="0.25" stroke-width="4" mask="url(#path-3-inside-2)"/>
<path d="M16.4039 10.6904V7.84396H15.3639V6.82324H18.6066V7.84396H17.5768V10.6904H16.4039Z" fill="black" fill-opacity="0.1"/>
<path d="M21.2339 10.6904L20.7003 9.47439H20.2756V10.6904H19.1028V6.82324H21.1669C22.073 6.82324 22.5589 7.42386 22.5589 8.14825C22.5589 8.81586 22.1729 9.16897 21.8629 9.32111L22.5635 10.6893H21.2339V10.6904ZM21.3724 8.14825C21.3724 7.9382 21.1862 7.84737 20.9909 7.84737H20.2756V8.45821H20.9909C21.1862 8.45367 21.3724 8.36284 21.3724 8.14825Z" fill="black" fill-opacity="0.1"/>
<path d="M23.1743 10.6904V6.82324H26.107V7.84396H24.3426V8.22545H26.0639V9.24617H24.3426V9.67081H26.107V10.6904H23.1743Z" fill="black" fill-opacity="0.1"/>
<path d="M26.7167 10.6949V9.76502L28.1904 7.84848H26.7167V6.82776H29.7346V7.74856L28.2563 9.67533H29.7777V10.696L26.7167 10.6949Z" fill="black" fill-opacity="0.1"/>
<path d="M30.0637 8.7637C30.0637 7.57608 30.9845 6.76086 32.1812 6.76086C33.3734 6.76086 34.2987 7.57153 34.2987 8.7637C34.2987 9.95132 33.3779 10.762 32.1812 10.762C30.9845 10.762 30.0637 9.95132 30.0637 8.7637ZM33.1066 8.7637C33.1066 8.22439 32.7398 7.79521 32.1767 7.79521C31.6135 7.79521 31.2468 8.22439 31.2468 8.7637C31.2468 9.30301 31.6135 9.73219 32.1767 9.73219C32.7444 9.73219 33.1066 9.30301 33.1066 8.7637Z" fill="black" fill-opacity="0.1"/>
<path d="M36.9204 10.6949L36.3868 9.4789H35.9622V10.6949H34.7893V6.82776H36.8535C37.7595 6.82776 38.2454 7.42838 38.2454 8.15276C38.2454 8.82037 37.8594 9.17348 37.5495 9.32562L38.25 10.6938H36.9204V10.6949ZM37.0635 8.14822C37.0635 7.93817 36.8773 7.84734 36.682 7.84734H35.9667V8.45818H36.682C36.8784 8.45364 37.0635 8.36281 37.0635 8.14822Z" fill="black" fill-opacity="0.1"/>
<path d="M10.6292 4.25C9.58281 4.25 8.73597 5.09684 8.73597 6.14325V6.85283C8.36851 6.91935 8 7.00804 8 7.12314V10.8262C8 10.8262 8 10.9286 8.11509 10.9772C8.53218 11.1462 10.1731 11.7269 10.55 11.86C10.5986 11.8779 10.6123 11.8779 10.625 11.8779C10.643 11.8779 10.6514 11.8779 10.7 11.86C11.0769 11.7269 12.722 11.1462 13.1391 10.9772C13.2458 10.9329 13.25 10.8304 13.25 10.8304V7.12314C13.25 7.00804 12.8868 6.91512 12.5183 6.85283V6.14325C12.5235 5.09684 11.6714 4.25 10.6292 4.25ZM10.6292 5.15492C11.2459 5.15492 11.6186 5.52765 11.6186 6.14431V6.76096C10.927 6.71239 10.3367 6.71239 9.64089 6.76096V6.14431C9.64089 5.5266 10.0136 5.15492 10.6292 5.15492ZM10.625 7.66905C11.4856 7.66905 12.2078 7.73557 12.2078 7.85489V10.1652C12.2078 10.2011 12.2036 10.2053 12.1719 10.218C12.1413 10.2317 10.7042 10.7502 10.7042 10.7502C10.7042 10.7502 10.6461 10.7682 10.6292 10.7682C10.6113 10.7682 10.5543 10.746 10.5543 10.746C10.5543 10.746 9.11716 10.2275 9.08653 10.2138C9.05591 10.2001 9.05063 10.1958 9.05063 10.161V7.85066C9.04219 7.73134 9.76443 7.66905 10.625 7.66905Z" fill="black" fill-opacity="0.1"/>
</g>
<defs>
<clipPath id="clip0">
<rect width="46.5" height="75" fill="white"/>
</clipPath>
</defs>
</svg>
