<svg width="93" height="150" viewBox="0 0 93 150" fill="none" xmlns="http://www.w3.org/2000/svg">
<mask id="path-1-inside-1" fill="white">
<path fill-rule="evenodd" clip-rule="evenodd" d="M0 8C0 3.58172 3.58172 0 8 0H85C89.4183 0 93 3.58172 93 8V59.25V67V88.5C93 107.699 82.0688 122.079 72.7792 134.299C68.5208 139.901 64.6074 145.049 62.25 150H55H38H30.75C28.3926 145.049 24.4792 139.901 20.2208 134.299C10.9312 122.079 0 107.699 0 88.5V67V59.25V8Z"/>
</mask>
<path d="M72.7792 134.299L71.187 133.089L71.187 133.089L72.7792 134.299ZM62.25 150V152H63.5128L64.0557 150.86L62.25 150ZM30.75 150L28.9443 150.86L29.4872 152H30.75V150ZM20.2208 134.299L21.813 133.089L21.813 133.089L20.2208 134.299ZM8 -2C2.47715 -2 -2 2.47715 -2 8H2C2 4.68629 4.68629 2 8 2V-2ZM85 -2H8V2H85V-2ZM95 8C95 2.47715 90.5229 -2 85 -2V2C88.3137 2 91 4.68629 91 8H95ZM95 59.25V8H91V59.25H95ZM95 67V59.25H91V67H95ZM95 88.5V67H91V88.5H95ZM74.3714 135.51C83.6078 123.359 95 108.467 95 88.5H91C91 106.931 80.5298 120.799 71.187 133.089L74.3714 135.51ZM64.0557 150.86C66.3058 146.135 70.0739 141.163 74.3714 135.51L71.187 133.089C66.9677 138.64 62.909 143.964 60.4443 149.14L64.0557 150.86ZM55 152H62.25V148H55V152ZM55 148H38V152H55V148ZM38 148H30.75V152H38V148ZM32.5557 149.14C30.091 143.964 26.0323 138.64 21.813 133.089L18.6286 135.51C22.9261 141.163 26.6942 146.135 28.9443 150.86L32.5557 149.14ZM21.813 133.089C12.4702 120.799 2 106.931 2 88.5H-2C-2 108.467 9.39222 123.359 18.6286 135.51L21.813 133.089ZM2 88.5V67H-2V88.5H2ZM2 67V59.25H-2V67H2ZM-2 8V59.25H2V8H-2Z" fill="black" mask="url(#path-1-inside-1)"/>
<rect x="14" y="24" width="65" height="65.5" rx="2.5" stroke="black" stroke-opacity="0.25" stroke-width="2"/>
<path d="M32.8078 17.3808V11.6879H30.7277V9.64648H37.2131V11.6879H35.1535V17.3808H32.8078Z" fill="black" fill-opacity="0.1"/>
<path d="M42.4677 17.3808L41.4004 14.9488H40.5512V17.3808H38.2054V9.64648H42.3337C44.1458 9.64648 45.1177 10.8477 45.1177 12.2965C45.1177 13.6317 44.3457 14.3379 43.7257 14.6422L45.1268 17.3785H42.4677V17.3808ZM42.7447 12.2965C42.7447 11.8764 42.3723 11.6947 41.9818 11.6947H40.5512V12.9164H41.9818C42.3723 12.9073 42.7447 12.7257 42.7447 12.2965Z" fill="black" fill-opacity="0.1"/>
<path d="M46.3485 17.3808V9.64648H52.214V11.6879H48.6852V12.4509H52.1277V14.4923H48.6852V15.3416H52.214V17.3808H46.3485Z" fill="black" fill-opacity="0.1"/>
<path d="M53.4333 17.3899V15.5301L56.3808 11.697H53.4333V9.65558H59.4691V11.4972L56.5125 15.3507H59.5554V17.3922L53.4333 17.3899Z" fill="black" fill-opacity="0.1"/>
<path d="M60.1276 13.5273C60.1276 11.152 61.9692 9.52161 64.3626 9.52161C66.747 9.52161 68.5977 11.1429 68.5977 13.5273C68.5977 15.9025 66.7561 17.5239 64.3626 17.5239C61.9692 17.5239 60.1276 15.9025 60.1276 13.5273ZM66.2133 13.5273C66.2133 12.4487 65.4799 11.5903 64.3536 11.5903C63.2273 11.5903 62.4938 12.4487 62.4938 13.5273C62.4938 14.6059 63.2273 15.4643 64.3536 15.4643C65.489 15.4643 66.2133 14.6059 66.2133 13.5273Z" fill="black" fill-opacity="0.1"/>
<path d="M73.8409 17.3899L72.7736 14.9579H71.9243V17.3899H69.5786V9.65558H73.7069C75.519 9.65558 76.4909 10.8568 76.4909 12.3056C76.4909 13.6408 75.7188 14.347 75.0989 14.6513L76.5 17.3876H73.8409V17.3899ZM74.127 12.2965C74.127 11.8764 73.7546 11.6947 73.364 11.6947H71.9334V12.9164H73.364C73.7569 12.9073 74.127 12.7257 74.127 12.2965Z" fill="black" fill-opacity="0.1"/>
<path d="M21.2584 4.5C19.1656 4.5 17.4719 6.19368 17.4719 8.2865V9.70565C16.737 9.8387 16 10.0161 16 10.2463V17.6525C16 17.6525 16 17.8573 16.2302 17.9544C17.0644 18.2923 20.3461 19.4538 21.1001 19.7199C21.1972 19.7558 21.2247 19.7558 21.25 19.7558C21.2859 19.7558 21.3028 19.7558 21.3999 19.7199C22.1539 19.4538 25.4441 18.2923 26.2783 17.9544C26.4916 17.8657 26.5 17.6609 26.5 17.6609V10.2463C26.5 10.0161 25.7735 9.83025 25.0365 9.70565V8.2865C25.0471 6.19368 23.3428 4.5 21.2584 4.5ZM21.2584 6.30983C22.4918 6.30983 23.2372 7.05531 23.2372 8.28862V9.52192C21.854 9.42478 20.6735 9.42478 19.2818 9.52192V8.28862C19.2818 7.0532 20.0273 6.30983 21.2584 6.30983ZM21.25 11.3381C22.9711 11.3381 24.4156 11.4711 24.4156 11.7098V16.3305C24.4156 16.4023 24.4072 16.4107 24.3438 16.436C24.2826 16.4635 21.4084 17.5004 21.4084 17.5004C21.4084 17.5004 21.2922 17.5363 21.2584 17.5363C21.2225 17.5363 21.1085 17.492 21.1085 17.492C21.1085 17.492 18.2343 16.455 18.1731 16.4276C18.1118 16.4001 18.1013 16.3917 18.1013 16.322V11.7013C18.0844 11.4627 19.5289 11.3381 21.25 11.3381Z" fill="black" fill-opacity="0.1"/>
</svg>
