<svg width="120" height="75" viewBox="0 0 120 75" fill="none" xmlns="http://www.w3.org/2000/svg">
<rect x="1" y="1" width="118" height="73" rx="1.5" stroke="black" stroke-width="2"/>
<rect x="10" y="12.5" width="60" height="7.5" rx="1" fill="black" fill-opacity="0.25"/>
<rect x="10" y="23.5" width="30" height="4" rx="1" fill="black" fill-opacity="0.25"/>
<rect x="12" y="51" width="2" height="2" stroke="black" stroke-opacity="0.25" stroke-width="2"/>
<rect x="12" y="62" width="2" height="2" stroke="black" stroke-opacity="0.25" stroke-width="2"/>
<rect x="21.2439" y="51" width="2" height="2" stroke="black" stroke-opacity="0.25" stroke-width="2"/>
<mask id="path-7-inside-1" fill="white">
<path fill-rule="evenodd" clip-rule="evenodd" d="M17.9512 50H15.7561V52.1951H17.2195V53.2927H15.7561V55.1219H12.4634V56.5854H11V58.7805H13.1951V57.3171H14.2926V58.7805H16.4878V55.8536H17.2195V57.3171H19.7805V58.4146H21.6099V59.5122H18.6829V60.9757H17.2195V63.1708H19.4146V61.7073H21.6099V64.6342H25.2684V60.9757H22.3414V60.2439H25.2684V56.5854H23.0733V57.6829H22.3414V55.1219H17.9512V54.0244H19.4146V51.4634H17.9512V50Z"/>
</mask>
<path d="M15.7561 50V48H13.7561V50H15.7561ZM17.9512 50H19.9512V48H17.9512V50ZM15.7561 52.1951H13.7561V54.1951H15.7561V52.1951ZM17.2195 52.1951H19.2195V50.1951H17.2195V52.1951ZM17.2195 53.2927V55.2927H19.2195V53.2927H17.2195ZM15.7561 53.2927V51.2927H13.7561V53.2927H15.7561ZM15.7561 55.1219V57.1219H17.7561V55.1219H15.7561ZM12.4634 55.1219V53.1219H10.4634V55.1219H12.4634ZM12.4634 56.5854V58.5854H14.4634V56.5854H12.4634ZM11 56.5854V54.5854H9V56.5854H11ZM11 58.7805H9V60.7805H11V58.7805ZM13.1951 58.7805V60.7805H15.1951V58.7805H13.1951ZM13.1951 57.3171V55.3171H11.1951V57.3171H13.1951ZM14.2926 57.3171H16.2926V55.3171H14.2926V57.3171ZM14.2926 58.7805H12.2926V60.7805H14.2926V58.7805ZM16.4878 58.7805V60.7805H18.4878V58.7805H16.4878ZM16.4878 55.8536V53.8536H14.4878V55.8536H16.4878ZM17.2195 55.8536H19.2195V53.8536H17.2195V55.8536ZM17.2195 57.3171H15.2195V59.3171H17.2195V57.3171ZM19.7805 57.3171H21.7805V55.3171H19.7805V57.3171ZM19.7805 58.4146H17.7805V60.4146H19.7805V58.4146ZM21.6099 58.4146H23.6099V56.4146H21.6099V58.4146ZM21.6099 59.5122V61.5122H23.6099V59.5122H21.6099ZM18.6829 59.5122V57.5122H16.6829V59.5122H18.6829ZM18.6829 60.9757V62.9757H20.6829V60.9757H18.6829ZM17.2195 60.9757V58.9757H15.2195V60.9757H17.2195ZM17.2195 63.1708H15.2195V65.1708H17.2195V63.1708ZM19.4146 63.1708V65.1708H21.4146V63.1708H19.4146ZM19.4146 61.7073V59.7073H17.4146V61.7073H19.4146ZM21.6099 61.7073H23.6099V59.7073H21.6099V61.7073ZM21.6099 64.6342H19.6099V66.6342H21.6099V64.6342ZM25.2684 64.6342V66.6342H27.2684V64.6342H25.2684ZM25.2684 60.9757H27.2684V58.9757H25.2684V60.9757ZM22.3414 60.9757H20.3414V62.9757H22.3414V60.9757ZM22.3414 60.2439V58.2439H20.3414V60.2439H22.3414ZM25.2684 60.2439V62.2439H27.2684V60.2439H25.2684ZM25.2684 56.5854H27.2684V54.5854H25.2684V56.5854ZM23.0733 56.5854V54.5854H21.0733V56.5854H23.0733ZM23.0733 57.6829V59.6829H25.0733V57.6829H23.0733ZM22.3414 57.6829H20.3414V59.6829H22.3414V57.6829ZM22.3414 55.1219H24.3414V53.1219H22.3414V55.1219ZM17.9512 55.1219H15.9512V57.1219H17.9512V55.1219ZM17.9512 54.0244V52.0244H15.9512V54.0244H17.9512ZM19.4146 54.0244V56.0244H21.4146V54.0244H19.4146ZM19.4146 51.4634H21.4146V49.4634H19.4146V51.4634ZM17.9512 51.4634H15.9512V53.4634H17.9512V51.4634ZM15.7561 52H17.9512V48H15.7561V52ZM17.7561 52.1951V50H13.7561V52.1951H17.7561ZM17.2195 50.1951H15.7561V54.1951H17.2195V50.1951ZM19.2195 53.2927V52.1951H15.2195V53.2927H19.2195ZM15.7561 55.2927H17.2195V51.2927H15.7561V55.2927ZM17.7561 55.1219V53.2927H13.7561V55.1219H17.7561ZM15.7561 53.1219H12.4634V57.1219H15.7561V53.1219ZM10.4634 55.1219V56.5854H14.4634V55.1219H10.4634ZM11 58.5854H12.4634V54.5854H11V58.5854ZM13 58.7805V56.5854H9V58.7805H13ZM13.1951 56.7805H11V60.7805H13.1951V56.7805ZM11.1951 57.3171V58.7805H15.1951V57.3171H11.1951ZM13.1951 59.3171H14.2926V55.3171H13.1951V59.3171ZM12.2926 57.3171V58.7805H16.2926V57.3171H12.2926ZM14.2926 60.7805H16.4878V56.7805H14.2926V60.7805ZM18.4878 58.7805V55.8536H14.4878V58.7805H18.4878ZM17.2195 53.8536H16.4878V57.8536H17.2195V53.8536ZM19.2195 57.3171V55.8536H15.2195V57.3171H19.2195ZM19.7805 55.3171H17.2195V59.3171H19.7805V55.3171ZM21.7805 58.4146V57.3171H17.7805V58.4146H21.7805ZM21.6099 56.4146H19.7805V60.4146H21.6099V56.4146ZM23.6099 59.5122V58.4146H19.6099V59.5122H23.6099ZM18.6829 61.5122H21.6099V57.5122H18.6829V61.5122ZM20.6829 60.9757V59.5122H16.6829V60.9757H20.6829ZM17.2195 62.9757H18.6829V58.9757H17.2195V62.9757ZM19.2195 63.1708V60.9757H15.2195V63.1708H19.2195ZM19.4146 61.1708H17.2195V65.1708H19.4146V61.1708ZM17.4146 61.7073V63.1708H21.4146V61.7073H17.4146ZM21.6099 59.7073H19.4146V63.7073H21.6099V59.7073ZM23.6099 64.6342V61.7073H19.6099V64.6342H23.6099ZM25.2684 62.6342H21.6099V66.6342H25.2684V62.6342ZM23.2684 60.9757V64.6342H27.2684V60.9757H23.2684ZM22.3414 62.9757H25.2684V58.9757H22.3414V62.9757ZM20.3414 60.2439V60.9757H24.3414V60.2439H20.3414ZM25.2684 58.2439H22.3414V62.2439H25.2684V58.2439ZM23.2684 56.5854V60.2439H27.2684V56.5854H23.2684ZM23.0733 58.5854H25.2684V54.5854H23.0733V58.5854ZM25.0733 57.6829V56.5854H21.0733V57.6829H25.0733ZM22.3414 59.6829H23.0733V55.6829H22.3414V59.6829ZM20.3414 55.1219V57.6829H24.3414V55.1219H20.3414ZM17.9512 57.1219H22.3414V53.1219H17.9512V57.1219ZM15.9512 54.0244V55.1219H19.9512V54.0244H15.9512ZM19.4146 52.0244H17.9512V56.0244H19.4146V52.0244ZM17.4146 51.4634V54.0244H21.4146V51.4634H17.4146ZM17.9512 53.4634H19.4146V49.4634H17.9512V53.4634ZM15.9512 50V51.4634H19.9512V50H15.9512Z" fill="black" fill-opacity="0.25" mask="url(#path-7-inside-1)"/>
<rect x="32.5" y="52.5" width="56" height="4" rx="1" fill="black" fill-opacity="0.25"/>
<rect x="32.5" y="59" width="35" height="4" rx="1" fill="black" fill-opacity="0.25"/>
</svg>
