<svg width="85" height="150" viewBox="0 0 85 150" fill="none" xmlns="http://www.w3.org/2000/svg">
<g clip-path="url(#clip0)">
<rect x="1" y="2.5" width="83" height="146.5" stroke="white" stroke-width="2"/>
<rect x="57.625" y="0.625" width="14.75" height="1.25" stroke="white" stroke-width="1.25"/>
<g opacity="0.25">
<rect x="8.5" y="12.5" width="68" height="119" stroke="white" stroke-width="2"/>
<rect x="13.5" y="81" width="58" height="4" rx="2" stroke="white" stroke-width="2"/>
<rect x="13.5" y="31" width="58" height="4" rx="2" stroke="white" stroke-width="2"/>
<rect x="13.5" y="93.5" width="58" height="4" rx="2" stroke="white" stroke-width="2"/>
<rect x="13.5" y="43.5" width="58" height="4" rx="2" stroke="white" stroke-width="2"/>
<rect x="13.5" y="106" width="58" height="4" rx="2" stroke="white" stroke-width="2"/>
<rect x="13.5" y="56" width="58" height="4" rx="2" stroke="white" stroke-width="2"/>
<rect x="13.5" y="118.5" width="58" height="4" rx="2" stroke="white" stroke-width="2"/>
<rect x="13.5" y="69" width="58" height="4" rx="2" stroke="white" stroke-width="2"/>
<rect x="13.5" y="18.5" width="4" height="4" stroke="white" stroke-width="2"/>
<rect x="67.5" y="18.5" width="4" height="4" stroke="white" stroke-width="2"/>
<rect x="33.5" y="139" width="18" height="2" stroke="white" stroke-width="2"/>
</g>
</g>
<defs>
<clipPath id="clip0">
<rect width="85" height="150" fill="white"/>
</clipPath>
</defs>
</svg>
