<svg width="31" height="30" viewBox="0 0 31 30" fill="none" xmlns="http://www.w3.org/2000/svg">
<g clip-path="url(#clip0)">
<path fill-rule="evenodd" clip-rule="evenodd" d="M1.5 0C0.947715 0 0.5 0.447716 0.5 1V7.87555C1.82528 7.61161 3.34752 7.50776 5 7.50041V5C5 4.17157 5.67157 3.5 6.5 3.5H12.5C13.3284 3.5 14 4.17157 14 5V7.98236L14.2469 8.00149C15.157 8.0719 16.0765 8.14208 17 8.20661V5C17 4.17157 17.6716 3.5 18.5 3.5H24.5C25.3284 3.5 26 4.17157 26 5V8.46896C27.5478 8.41655 29.0568 8.29417 30.5 8.0737V1C30.5 0.447715 30.0523 0 29.5 0H1.5ZM25 8.49329V5C25 4.72386 24.7761 4.5 24.5 4.5H18.5C18.2239 4.5 18 4.72386 18 5V8.27394C20.3474 8.42544 22.7091 8.52804 25 8.49329ZM6.30805 7.51299C6.20495 7.51068 6.10226 7.50867 6 7.50695V5C6 4.72386 6.22386 4.5 6.5 4.5H12.5C12.7761 4.5 13 4.72386 13 5V7.90496C10.6498 7.72386 8.38203 7.55934 6.30805 7.51299ZM30.5 9.0849C25.3965 9.8386 19.5482 9.41459 14.1698 8.99851L13.7081 8.96275C11.0724 8.75842 8.55841 8.56353 6.2857 8.51274C4.05617 8.46291 2.09268 8.55314 0.5 8.89676V29C0.5 29.5523 0.947716 30 1.5 30H29.5C30.0523 30 30.5 29.5523 30.5 29V9.0849Z" fill="white"/>
</g>
<defs>
<clipPath id="clip0">
<rect width="30" height="30" fill="white" transform="translate(0.5)"/>
</clipPath>
</defs>
</svg>
