<svg width="60" height="150" viewBox="0 0 60 150" fill="none" xmlns="http://www.w3.org/2000/svg">
<rect x="1" y="1" width="58" height="148" rx="6.5" stroke="black" stroke-width="2"/>
<path d="M14.6016 125.125H16.9453V133C16.9453 133.724 16.7839 134.365 16.4609 134.922C16.1432 135.474 15.6927 135.901 15.1094 136.203C14.526 136.505 13.8672 136.656 13.1328 136.656C11.9297 136.656 10.9922 136.352 10.3203 135.742C9.64844 135.128 9.3125 134.26 9.3125 133.141H11.6719C11.6719 133.698 11.7891 134.109 12.0234 134.375C12.2578 134.641 12.6276 134.773 13.1328 134.773C13.5807 134.773 13.9375 134.62 14.2031 134.312C14.4688 134.005 14.6016 133.568 14.6016 133V125.125ZM26.3231 134.156H22.2137L21.4325 136.5H18.9403L23.1747 125.125H25.3466L29.6044 136.5H27.1122L26.3231 134.156ZM22.8466 132.258H25.6903L24.2606 128L22.8466 132.258ZM31.7869 136.5V125.125H35.2869C36.2869 125.125 37.1801 125.352 37.9666 125.805C38.7582 126.253 39.3754 126.893 39.8181 127.727C40.2608 128.555 40.4822 129.497 40.4822 130.555V131.078C40.4822 132.135 40.2634 133.076 39.8259 133.898C39.3936 134.721 38.7817 135.359 37.99 135.812C37.1983 136.266 36.3051 136.495 35.3103 136.5H31.7869ZM34.1306 127.023V134.617H35.2634C36.1801 134.617 36.8806 134.318 37.365 133.719C37.8494 133.12 38.0968 132.263 38.1072 131.148V130.547C38.1072 129.391 37.8676 128.516 37.3884 127.922C36.9093 127.323 36.2087 127.023 35.2869 127.023H34.1306ZM50.1569 131.57H45.6569V134.617H50.9381V136.5H43.3131V125.125H50.9225V127.023H45.6569V129.734H50.1569V131.57Z" fill="black" fill-opacity="0.1"/>
<rect x="16" y="93.5" width="28" height="18.5" rx="3" stroke="black" stroke-opacity="0.25" stroke-width="2"/>
<mask id="path-4-inside-1" fill="white">
<rect x="10" y="10" width="40" height="67.5" rx="1.5"/>
</mask>
<rect x="10" y="10" width="40" height="67.5" rx="1.5" stroke="black" stroke-opacity="0.25" stroke-width="4" mask="url(#path-4-inside-1)"/>
</svg>
