<svg width="120" height="300" viewBox="0 0 120 300" fill="none" xmlns="http://www.w3.org/2000/svg">
<rect x="1" y="1" width="118" height="298" rx="14" stroke="black" stroke-width="2"/>
<rect x="21" y="21" width="78" height="133" rx="2" stroke="black" stroke-opacity="0.25" stroke-width="2"/>
<rect x="31" y="186" width="58" height="39" rx="7" stroke="black" stroke-opacity="0.25" stroke-width="2"/>
<path d="M29.2031 250.25H33.8906V266C33.8906 267.448 33.5677 268.729 32.9219 269.844C32.2865 270.948 31.3854 271.802 30.2188 272.406C29.0521 273.01 27.7344 273.312 26.2656 273.312C23.8594 273.312 21.9844 272.703 20.6406 271.484C19.2969 270.255 18.625 268.521 18.625 266.281H23.3438C23.3438 267.396 23.5781 268.219 24.0469 268.75C24.5156 269.281 25.2552 269.547 26.2656 269.547C27.1615 269.547 27.875 269.24 28.4062 268.625C28.9375 268.01 29.2031 267.135 29.2031 266V250.25ZM52.6462 268.312H44.4275L42.865 273H37.8806L46.3494 250.25H50.6931L59.2087 273H54.2244L52.6462 268.312ZM45.6931 264.516H51.3806L48.5212 256L45.6931 264.516ZM63.5737 273V250.25H70.5737C72.5737 250.25 74.3602 250.703 75.9331 251.609C77.5165 252.505 78.7508 253.786 79.6362 255.453C80.5217 257.109 80.9644 258.995 80.9644 261.109V262.156C80.9644 264.271 80.5269 266.151 79.6519 267.797C78.7873 269.443 77.5633 270.719 75.98 271.625C74.3967 272.531 72.6102 272.99 70.6206 273H63.5737ZM68.2612 254.047V269.234H70.5269C72.3602 269.234 73.7612 268.635 74.73 267.438C75.6987 266.24 76.1935 264.526 76.2144 262.297V261.094C76.2144 258.781 75.7352 257.031 74.7769 255.844C73.8185 254.646 72.4175 254.047 70.5737 254.047H68.2612ZM100.314 263.141H91.3138V269.234H101.876V273H86.6263V250.25H101.845V254.047H91.3138V259.469H100.314V263.141Z" fill="black" fill-opacity="0.1"/>
</svg>
