<svg width="240" height="150" viewBox="0 0 240 150" fill="none" xmlns="http://www.w3.org/2000/svg">
<rect x="1" y="1" width="238" height="148" rx="4" stroke="black" stroke-width="2"/>
<rect x="21" y="26" width="118" height="13" rx="1" stroke="black" stroke-opacity="0.25" stroke-width="2"/>
<rect x="21" y="48" width="58" height="6" rx="1" stroke="black" stroke-opacity="0.25" stroke-width="2"/>
<rect x="20" y="100" width="8.78049" height="8.78049" stroke="black" stroke-opacity="0.25" stroke-width="2"/>
<rect x="22.1951" y="102.195" width="4.39024" height="4.39024" fill="black" fill-opacity="0.25"/>
<rect x="20" y="120.488" width="8.78049" height="8.78049" stroke="black" stroke-opacity="0.25" stroke-width="2"/>
<rect x="22.1951" y="122.683" width="4.39024" height="4.39024" fill="black" fill-opacity="0.25"/>
<rect x="40.4878" y="100" width="8.78049" height="8.78049" stroke="black" stroke-opacity="0.25" stroke-width="2"/>
<rect x="42.683" y="102.195" width="4.39024" height="4.39024" fill="black" fill-opacity="0.25"/>
<path fill-rule="evenodd" clip-rule="evenodd" d="M35.3658 100.732H30.9756V105.122H33.9025V107.317H30.9756V110.976H24.3903V113.902H21.4634V118.293H25.8536V115.366H28.0488V118.293H32.439V112.439H33.9025V115.366H39.0244V117.561H42.683V119.756H36.8292V122.683H33.9025V127.073H38.2927V124.146H42.683V130H50.0001V122.683H44.1463V121.22H50.0001V113.902H45.6098V116.098H44.1464V110.976H35.3658V108.78H38.2927V103.659H35.3658V100.732Z" fill="black" fill-opacity="0.25"/>
<rect x="66" y="106" width="110" height="6" rx="1" stroke="black" stroke-opacity="0.25" stroke-width="2"/>
<rect x="66" y="119" width="68" height="6" rx="1" stroke="black" stroke-opacity="0.25" stroke-width="2"/>
</svg>
