<svg width="30" height="30" viewBox="0 0 30 30" fill="none" xmlns="http://www.w3.org/2000/svg">
<path d="M19.2462 6.70618L19.3507 4.21375L21.4872 4.08179L21.5831 6.61899C21.5846 6.65965 21.5715 6.69951 21.5462 6.73132C21.5324 6.74857 21.5153 6.76287 21.4959 6.77339C21.4764 6.78391 21.4551 6.79043 21.4331 6.79255C21.4112 6.79467 21.389 6.79236 21.3679 6.78576C21.3469 6.77915 21.3273 6.76839 21.3105 6.7541L20.4857 6.10998L19.5093 6.84365C19.4919 6.85726 19.4719 6.86726 19.4505 6.87305C19.4291 6.87885 19.4068 6.88032 19.3849 6.8774C19.363 6.87447 19.3418 6.8672 19.3227 6.85601C19.3036 6.84482 19.2869 6.82994 19.2737 6.81223C19.2525 6.78115 19.2427 6.74365 19.2462 6.70618Z" fill="white"/>
<path d="M19.3507 4.21297L19.2462 6.70618C19.2446 6.74441 19.2565 6.78198 19.28 6.81223C19.2932 6.82994 19.3099 6.84482 19.329 6.85601C19.3481 6.8672 19.3693 6.87447 19.3912 6.8774C19.4131 6.88033 19.4354 6.87885 19.4568 6.87305C19.4782 6.86726 19.4982 6.85726 19.5156 6.84365L20.492 6.10998L21.3168 6.7541C21.3336 6.76839 21.3532 6.77916 21.3742 6.78576C21.3953 6.79237 21.4175 6.79467 21.4394 6.79255C21.4614 6.79043 21.4827 6.78391 21.5022 6.77339C21.5216 6.76288 21.5387 6.74857 21.5525 6.73132C21.5778 6.69951 21.5909 6.65965 21.5894 6.61899L21.4873 4.081L22.7174 4.00245C22.8632 3.99275 23.0095 4.01191 23.148 4.05883C23.2864 4.10575 23.4142 4.17952 23.5241 4.2759C23.634 4.37229 23.7238 4.4894 23.7883 4.62053C23.8529 4.75167 23.891 4.89425 23.9003 5.04011C23.9003 5.06263 23.9003 5.08541 23.9003 5.10845V24.8908C23.8991 25.1847 23.7814 25.4661 23.5731 25.6734C23.3648 25.8807 23.0828 25.997 22.7888 25.9968H22.737L7.85313 25.3338C7.57437 25.3224 7.31011 25.2065 7.1129 25.0091C6.91569 24.8118 6.79998 24.5474 6.78876 24.2686L6.10066 6.11548C6.09074 5.82596 6.19449 5.54404 6.38972 5.33002C6.58496 5.116 6.85617 4.98686 7.14539 4.9702L19.3499 4.21375L19.3507 4.21297Z" fill="black"/>
<path d="M16.511 12.2928C16.511 12.7225 19.4331 12.5167 19.8259 12.2143C19.8259 9.28429 18.2407 7.74469 15.3375 7.74469C12.4342 7.74469 10.8082 9.30786 10.8082 11.6534C10.8082 15.7381 16.3673 15.8166 16.3673 18.0443C16.3856 18.1788 16.3727 18.3157 16.3297 18.4444C16.2866 18.5731 16.2146 18.6902 16.119 18.7866C16.0235 18.8831 15.9071 18.9562 15.7788 19.0005C15.6505 19.0448 15.5138 19.0589 15.3791 19.0419C14.4939 19.0419 14.1435 18.5926 14.1851 17.0687C14.1851 16.738 10.8074 16.6343 10.7053 17.0687C10.443 20.7606 12.7642 21.8289 15.4184 21.8289C17.9917 21.8289 20.0097 20.4676 20.0097 18.005C20.0097 13.6274 14.3682 13.7452 14.3682 11.5756C14.3564 11.4371 14.3759 11.2976 14.4253 11.1676C14.4747 11.0377 14.5528 10.9205 14.6536 10.8247C14.7545 10.729 14.8756 10.6572 15.008 10.6146C15.1404 10.572 15.2806 10.5598 15.4184 10.5788C15.8316 10.5788 16.5731 10.6511 16.511 12.2928Z" fill="white"/>
</svg>
