<svg width="480" height="300" viewBox="0 0 480 300" fill="none" xmlns="http://www.w3.org/2000/svg">
<rect x="1" y="1" width="478" height="298" rx="9" stroke="black" stroke-width="2"/>
<rect x="41" y="51" width="238" height="28" rx="3" stroke="black" stroke-opacity="0.25" stroke-width="2"/>
<rect x="41" y="95" width="118" height="14" rx="3" stroke="black" stroke-opacity="0.25" stroke-width="2"/>
<rect x="40" y="200" width="17.561" height="17.561" stroke="black" stroke-opacity="0.25" stroke-width="2"/>
<rect x="45.3901" y="205.39" width="6.78049" height="6.78049" stroke="black" stroke-opacity="0.25" stroke-width="2"/>
<rect x="40" y="240.976" width="17.561" height="17.561" stroke="black" stroke-opacity="0.25" stroke-width="2"/>
<rect x="45.3901" y="246.366" width="6.78049" height="6.78049" stroke="black" stroke-opacity="0.25" stroke-width="2"/>
<rect x="80.9756" y="200" width="17.561" height="17.561" stroke="black" stroke-opacity="0.25" stroke-width="2"/>
<rect x="86.366" y="205.39" width="6.78049" height="6.78049" stroke="black" stroke-opacity="0.25" stroke-width="2"/>
<mask id="path-10-inside-1" fill="white">
<path fill-rule="evenodd" clip-rule="evenodd" d="M70.7317 201.463H61.9512V210.244H67.8049V214.634H61.9512V221.951H48.7805V227.805H42.9268V236.585H51.7072V230.732H56.0976V236.585H64.8781V224.878H67.8049V230.732H78.0488V235.122H85.366V239.512H73.6584V245.366H67.8049V254.146H76.5854V248.293H85.366V260H100V245.366H88.2926V242.439H100V227.805H91.2196V232.195H88.2927V221.951H70.7317V217.561H76.5854V207.317H70.7317V201.463Z"/>
</mask>
<path d="M61.9512 201.463V199.463H59.9512V201.463H61.9512ZM70.7317 201.463H72.7317V199.463H70.7317V201.463ZM61.9512 210.244H59.9512V212.244H61.9512V210.244ZM67.8049 210.244H69.8049V208.244H67.8049V210.244ZM67.8049 214.634V216.634H69.8049V214.634H67.8049ZM61.9512 214.634V212.634H59.9512V214.634H61.9512ZM61.9512 221.951V223.951H63.9512V221.951H61.9512ZM48.7805 221.951V219.951H46.7805V221.951H48.7805ZM48.7805 227.805V229.805H50.7805V227.805H48.7805ZM42.9268 227.805V225.805H40.9268V227.805H42.9268ZM42.9268 236.585H40.9268V238.585H42.9268V236.585ZM51.7072 236.585V238.585H53.7072V236.585H51.7072ZM51.7072 230.732V228.732H49.7072V230.732H51.7072ZM56.0976 230.732H58.0976V228.732H56.0976V230.732ZM56.0976 236.585H54.0976V238.585H56.0976V236.585ZM64.8781 236.585V238.585H66.8781V236.585H64.8781ZM64.8781 224.878V222.878H62.8781V224.878H64.8781ZM67.8049 224.878H69.8049V222.878H67.8049V224.878ZM67.8049 230.732H65.8049V232.732H67.8049V230.732ZM78.0488 230.732H80.0488V228.732H78.0488V230.732ZM78.0488 235.122H76.0488V237.122H78.0488V235.122ZM85.366 235.122H87.366V233.122H85.366V235.122ZM85.366 239.512V241.512H87.366V239.512H85.366ZM73.6584 239.512V237.512H71.6584V239.512H73.6584ZM73.6584 245.366V247.366H75.6584V245.366H73.6584ZM67.8049 245.366V243.366H65.8049V245.366H67.8049ZM67.8049 254.146H65.8049V256.146H67.8049V254.146ZM76.5854 254.146V256.146H78.5854V254.146H76.5854ZM76.5854 248.293V246.293H74.5854V248.293H76.5854ZM85.366 248.293H87.366V246.293H85.366V248.293ZM85.366 260H83.366V262H85.366V260ZM100 260V262H102V260H100ZM100 245.366H102V243.366H100V245.366ZM88.2926 245.366H86.2926V247.366H88.2926V245.366ZM88.2926 242.439V240.439H86.2926V242.439H88.2926ZM100 242.439V244.439H102V242.439H100ZM100 227.805H102V225.805H100V227.805ZM91.2196 227.805V225.805H89.2196V227.805H91.2196ZM91.2196 232.195V234.195H93.2196V232.195H91.2196ZM88.2927 232.195H86.2927V234.195H88.2927V232.195ZM88.2927 221.951H90.2927V219.951H88.2927V221.951ZM70.7317 221.951H68.7317V223.951H70.7317V221.951ZM70.7317 217.561V215.561H68.7317V217.561H70.7317ZM76.5854 217.561V219.561H78.5854V217.561H76.5854ZM76.5854 207.317H78.5854V205.317H76.5854V207.317ZM70.7317 207.317H68.7317V209.317H70.7317V207.317ZM61.9512 203.463H70.7317V199.463H61.9512V203.463ZM63.9512 210.244V201.463H59.9512V210.244H63.9512ZM67.8049 208.244H61.9512V212.244H67.8049V208.244ZM69.8049 214.634V210.244H65.8049V214.634H69.8049ZM61.9512 216.634H67.8049V212.634H61.9512V216.634ZM63.9512 221.951V214.634H59.9512V221.951H63.9512ZM61.9512 219.951H48.7805V223.951H61.9512V219.951ZM46.7805 221.951V227.805H50.7805V221.951H46.7805ZM42.9268 229.805H48.7805V225.805H42.9268V229.805ZM44.9268 236.585V227.805H40.9268V236.585H44.9268ZM51.7072 234.585H42.9268V238.585H51.7072V234.585ZM49.7072 230.732V236.585H53.7072V230.732H49.7072ZM51.7072 232.732H56.0976V228.732H51.7072V232.732ZM54.0976 230.732V236.585H58.0976V230.732H54.0976ZM56.0976 238.585H64.8781V234.585H56.0976V238.585ZM66.8781 236.585V224.878H62.8781V236.585H66.8781ZM67.8049 222.878H64.8781V226.878H67.8049V222.878ZM69.8049 230.732V224.878H65.8049V230.732H69.8049ZM78.0488 228.732H67.8049V232.732H78.0488V228.732ZM80.0488 235.122V230.732H76.0488V235.122H80.0488ZM85.366 233.122H78.0488V237.122H85.366V233.122ZM87.366 239.512V235.122H83.366V239.512H87.366ZM73.6584 241.512H85.366V237.512H73.6584V241.512ZM75.6584 245.366V239.512H71.6584V245.366H75.6584ZM67.8049 247.366H73.6584V243.366H67.8049V247.366ZM69.8049 254.146V245.366H65.8049V254.146H69.8049ZM76.5854 252.146H67.8049V256.146H76.5854V252.146ZM74.5854 248.293V254.146H78.5854V248.293H74.5854ZM85.366 246.293H76.5854V250.293H85.366V246.293ZM87.366 260V248.293H83.366V260H87.366ZM100 258H85.366V262H100V258ZM98.0001 245.366V260H102V245.366H98.0001ZM88.2926 247.366H100V243.366H88.2926V247.366ZM86.2926 242.439V245.366H90.2926V242.439H86.2926ZM100 240.439H88.2926V244.439H100V240.439ZM98.0001 227.805V242.439H102V227.805H98.0001ZM91.2196 229.805H100V225.805H91.2196V229.805ZM93.2196 232.195V227.805H89.2196V232.195H93.2196ZM88.2927 234.195H91.2196V230.195H88.2927V234.195ZM86.2927 221.951V232.195H90.2927V221.951H86.2927ZM70.7317 223.951H88.2927V219.951H70.7317V223.951ZM68.7317 217.561V221.951H72.7317V217.561H68.7317ZM76.5854 215.561H70.7317V219.561H76.5854V215.561ZM74.5854 207.317V217.561H78.5854V207.317H74.5854ZM70.7317 209.317H76.5854V205.317H70.7317V209.317ZM68.7317 201.463V207.317H72.7317V201.463H68.7317Z" fill="black" fill-opacity="0.25" mask="url(#path-10-inside-1)"/>
<rect x="131" y="211" width="222" height="14" rx="3" stroke="black" stroke-opacity="0.25" stroke-width="2"/>
<rect x="131" y="237" width="138" height="14" rx="3" stroke="black" stroke-opacity="0.25" stroke-width="2"/>
</svg>
