<svg width="61" height="75" viewBox="0 0 61 75" fill="none" xmlns="http://www.w3.org/2000/svg">
<g clip-path="url(#clip0)">
<path d="M57.7258 74.5H2.72583C1.62126 74.5 0.72583 73.6046 0.72583 72.5V2.5C0.72583 1.39543 1.62126 0.5 2.72583 0.5H50.0655L59.7258 9.96018V72.5C59.7258 73.6046 58.8304 74.5 57.7258 74.5Z" stroke="black"/>
<rect opacity="0.25" x="7.97583" y="5.25" width="4" height="9" rx="2" stroke="black"/>
<rect opacity="0.25" x="27.9758" y="5.25" width="4" height="9" rx="2" stroke="black"/>
<rect opacity="0.25" x="17.9758" y="5.25" width="4" height="9" rx="2" stroke="black"/>
<rect opacity="0.25" x="37.9758" y="5.25" width="4" height="9" rx="2" stroke="black"/>
<path opacity="0.25" d="M7.22583 74.75V62.625C7.22583 60.5539 8.90476 58.875 10.9758 58.875H49.4758C51.5469 58.875 53.2258 60.5539 53.2258 62.625V74.75" stroke="black"/>
</g>
<defs>
<clipPath id="clip0">
<rect width="60" height="75" fill="white" transform="translate(0.22583)"/>
</clipPath>
</defs>
</svg>
