<svg width="30" height="75" viewBox="0 0 30 75" fill="none" xmlns="http://www.w3.org/2000/svg">
<rect x="1" y="1" width="28" height="73" rx="2.75" stroke="black" stroke-width="2"/>
<path d="M7.30078 62.0625H8.47266V66C8.47266 66.362 8.39193 66.6823 8.23047 66.9609C8.07161 67.237 7.84635 67.4505 7.55469 67.6016C7.26302 67.7526 6.93359 67.8281 6.56641 67.8281C5.96484 67.8281 5.49609 67.6758 5.16016 67.3711C4.82422 67.0638 4.65625 66.6302 4.65625 66.0703H5.83594C5.83594 66.349 5.89453 66.5547 6.01172 66.6875C6.12891 66.8203 6.3138 66.8867 6.56641 66.8867C6.79036 66.8867 6.96875 66.8099 7.10156 66.6562C7.23438 66.5026 7.30078 66.2839 7.30078 66V62.0625ZM13.1616 66.5781H11.1069L10.7162 67.75H9.47016L11.5873 62.0625H12.6733L14.8022 67.75H13.5561L13.1616 66.5781ZM11.4233 65.6289H12.8452L12.1303 63.5L11.4233 65.6289ZM15.8934 67.75V62.0625H17.6434C18.1434 62.0625 18.5901 62.1758 18.9833 62.4023C19.3791 62.6263 19.6877 62.9466 19.9091 63.3633C20.1304 63.7773 20.2411 64.2487 20.2411 64.7773V65.0391C20.2411 65.5677 20.1317 66.0378 19.913 66.4492C19.6968 66.8607 19.3908 67.1797 18.995 67.4062C18.5992 67.6328 18.1526 67.7474 17.6552 67.75H15.8934ZM17.0653 63.0117V66.8086H17.6317C18.0901 66.8086 18.4403 66.6589 18.6825 66.3594C18.9247 66.0599 19.0484 65.6315 19.0536 65.0742V64.7734C19.0536 64.1953 18.9338 63.7578 18.6942 63.4609C18.4546 63.1615 18.1044 63.0117 17.6434 63.0117H17.0653ZM25.0784 65.2852H22.8284V66.8086H25.4691V67.75H21.6566V62.0625H25.4613V63.0117H22.8284V64.3672H25.0784V65.2852Z" fill="black" fill-opacity="0.1"/>
<rect x="8.5" y="47.25" width="13" height="8.25" rx="1" stroke="black" stroke-opacity="0.25" stroke-width="2"/>
<mask id="path-4-inside-1" fill="white">
<rect x="5" y="5" width="20" height="33.75" rx="0.75"/>
</mask>
<rect x="5" y="5" width="20" height="33.75" rx="0.75" stroke="black" stroke-opacity="0.25" stroke-width="4" mask="url(#path-4-inside-1)"/>
</svg>
