<svg width="62" height="150" viewBox="0 0 62 150" fill="none" xmlns="http://www.w3.org/2000/svg">
<g clip-path="url(#clip0)">
<rect x="1.2439" y="1" width="59" height="148" stroke="black" stroke-width="2"/>
<path d="M19.2849 134.517L19.2849 133.257L26.1169 133.257L23.2469 130.401L23.2469 128.651L26.2569 131.745L29.8689 128.385L29.8689 130.177L26.4249 133.257L29.8689 133.257L29.8689 134.517L19.2849 134.517ZM27.0129 126.305C27.3022 126.305 27.5682 126.244 27.8109 126.123C28.0442 125.992 28.2449 125.824 28.4129 125.619C28.5809 125.414 28.7116 125.176 28.8049 124.905C28.8982 124.634 28.9449 124.354 28.9449 124.065C28.9449 123.673 28.8562 123.332 28.6789 123.043C28.4922 122.754 28.2496 122.488 27.9509 122.245L28.6789 121.293C29.5842 121.993 30.0369 122.973 30.0369 124.233C30.0369 124.756 29.9482 125.232 29.7709 125.661C29.5936 126.081 29.3509 126.44 29.0429 126.739C28.7256 127.028 28.3569 127.252 27.9369 127.411C27.5076 127.57 27.0456 127.649 26.5509 127.649C26.0562 127.649 25.5989 127.565 25.1789 127.397C24.7496 127.22 24.3809 126.982 24.0729 126.683C23.7556 126.375 23.5082 126.011 23.3309 125.591C23.1536 125.171 23.0649 124.714 23.0649 124.219C23.0649 123.631 23.1676 123.136 23.3729 122.735C23.5782 122.324 23.8489 121.988 24.1849 121.727C24.5116 121.466 24.8849 121.279 25.3049 121.167C25.7156 121.046 26.1356 120.985 26.5649 120.985L27.0129 120.985L27.0129 126.305ZM26.0049 122.329C25.7249 122.338 25.4682 122.385 25.2349 122.469C25.0016 122.544 24.8009 122.66 24.6329 122.819C24.4556 122.978 24.3202 123.178 24.2269 123.421C24.1242 123.654 24.0729 123.93 24.0729 124.247C24.0729 124.555 24.1336 124.84 24.2549 125.101C24.3669 125.353 24.5162 125.568 24.7029 125.745C24.8896 125.922 25.0996 126.062 25.3329 126.165C25.5569 126.258 25.7809 126.305 26.0049 126.305L26.0049 122.329ZM27.0129 118.526C27.3022 118.526 27.5682 118.465 27.8109 118.344C28.0442 118.213 28.2449 118.045 28.4129 117.84C28.5809 117.634 28.7116 117.396 28.8049 117.126C28.8982 116.855 28.9449 116.575 28.9449 116.286C28.9449 115.894 28.8562 115.553 28.6789 115.264C28.4922 114.974 28.2496 114.708 27.9509 114.466L28.6789 113.514C29.5842 114.214 30.0369 115.194 30.0369 116.454C30.0369 116.976 29.9482 117.452 29.7709 117.882C29.5936 118.302 29.3509 118.661 29.0429 118.96C28.7256 119.249 28.3569 119.473 27.9369 119.632C27.5076 119.79 27.0456 119.87 26.5509 119.87C26.0562 119.87 25.5989 119.786 25.1789 119.618C24.7496 119.44 24.3809 119.202 24.0729 118.904C23.7556 118.596 23.5082 118.232 23.3309 117.812C23.1536 117.392 23.0649 116.934 23.0649 116.44C23.0649 115.852 23.1676 115.357 23.3729 114.956C23.5782 114.545 23.8489 114.209 24.1849 113.948C24.5116 113.686 24.8849 113.5 25.3049 113.388C25.7156 113.266 26.1356 113.206 26.5649 113.206L27.0129 113.206L27.0129 118.526ZM26.0049 114.55C25.7249 114.559 25.4682 114.606 25.2349 114.69C25.0016 114.764 24.8009 114.881 24.6329 115.04C24.4556 115.198 24.3202 115.399 24.2269 115.642C24.1242 115.875 24.0729 116.15 24.0729 116.468C24.0729 116.776 24.1336 117.06 24.2549 117.322C24.3669 117.574 24.5162 117.788 24.7029 117.966C24.8896 118.143 25.0996 118.283 25.3329 118.386C25.5569 118.479 25.7809 118.526 26.0049 118.526L26.0049 114.55ZM23.2329 111.698L23.2329 110.438L24.1849 110.438L24.1849 110.41C23.8302 110.168 23.5549 109.836 23.3589 109.416C23.1629 108.987 23.0649 108.548 23.0649 108.1C23.0649 107.587 23.1536 107.125 23.3309 106.714C23.5082 106.294 23.7556 105.94 24.0729 105.65C24.3902 105.352 24.7636 105.123 25.1929 104.964C25.6129 104.806 26.0656 104.726 26.5509 104.726C27.0456 104.726 27.5076 104.806 27.9369 104.964C28.3569 105.123 28.7256 105.352 29.0429 105.65C29.3509 105.94 29.5936 106.294 29.7709 106.714C29.9482 107.125 30.0369 107.587 30.0369 108.1C30.0369 108.576 29.9389 109.024 29.7429 109.444C29.5376 109.864 29.2622 110.186 28.9169 110.41L28.9169 110.438L33.8169 110.438L33.8169 111.698L23.2329 111.698ZM24.2409 108.254C24.2409 108.59 24.3016 108.894 24.4229 109.164C24.5349 109.435 24.6936 109.664 24.8989 109.85C25.0949 110.037 25.3376 110.182 25.6269 110.284C25.9069 110.387 26.2149 110.438 26.5509 110.438C26.8869 110.438 27.1996 110.387 27.4889 110.284C27.7689 110.182 28.0116 110.037 28.2169 109.85C28.4129 109.664 28.5716 109.435 28.6929 109.164C28.8049 108.894 28.8609 108.59 28.8609 108.254C28.8609 107.918 28.8049 107.615 28.6929 107.344C28.5716 107.074 28.4129 106.845 28.2169 106.658C28.0116 106.472 27.7689 106.327 27.4889 106.224C27.1996 106.122 26.8869 106.07 26.5509 106.07C26.2149 106.07 25.9069 106.122 25.6269 106.224C25.3376 106.327 25.0949 106.472 24.8989 106.658C24.6936 106.845 24.5349 107.074 24.4229 107.344C24.3016 107.615 24.2409 107.918 24.2409 108.254ZM28.2849 134.517L28.2849 133.257L35.1169 133.257L32.2469 130.401L32.2469 128.651L35.2569 131.745L38.8689 128.385L38.8689 130.177L35.4249 133.257L38.8689 133.257L38.8689 134.517L28.2849 134.517ZM36.0129 126.305C36.3022 126.305 36.5682 126.244 36.8109 126.123C37.0442 125.992 37.2449 125.824 37.4129 125.619C37.5809 125.414 37.7116 125.176 37.8049 124.905C37.8982 124.634 37.9449 124.354 37.9449 124.065C37.9449 123.673 37.8562 123.332 37.6789 123.043C37.4922 122.754 37.2496 122.488 36.9509 122.245L37.6789 121.293C38.5842 121.993 39.0369 122.973 39.0369 124.233C39.0369 124.756 38.9482 125.232 38.7709 125.661C38.5936 126.081 38.3509 126.44 38.0429 126.739C37.7256 127.028 37.3569 127.252 36.9369 127.411C36.5076 127.57 36.0456 127.649 35.5509 127.649C35.0562 127.649 34.5989 127.565 34.1789 127.397C33.7496 127.22 33.3809 126.982 33.0729 126.683C32.7556 126.375 32.5082 126.011 32.3309 125.591C32.1536 125.171 32.0649 124.714 32.0649 124.219C32.0649 123.631 32.1676 123.136 32.3729 122.735C32.5782 122.324 32.8489 121.988 33.1849 121.727C33.5116 121.466 33.8849 121.279 34.3049 121.167C34.7156 121.046 35.1356 120.985 35.5649 120.985L36.0129 120.985L36.0129 126.305ZM35.0049 122.329C34.7249 122.338 34.4682 122.385 34.2349 122.469C34.0016 122.544 33.8009 122.66 33.6329 122.819C33.4556 122.978 33.3202 123.178 33.2269 123.421C33.1242 123.654 33.0729 123.93 33.0729 124.247C33.0729 124.555 33.1336 124.84 33.2549 125.101C33.3669 125.353 33.5162 125.568 33.7029 125.745C33.8896 125.922 34.0996 126.062 34.3329 126.165C34.5569 126.258 34.7809 126.305 35.0049 126.305L35.0049 122.329ZM32.2329 120.276L32.2329 118.82L37.4129 116.846L37.4129 116.818L32.2329 114.942L32.2329 113.584L40.2969 116.734C40.5862 116.846 40.8476 116.962 41.0809 117.084C41.3236 117.205 41.5289 117.35 41.6969 117.518C41.8649 117.686 41.9956 117.891 42.0889 118.134C42.1822 118.367 42.2289 118.656 42.2289 119.002C42.2289 119.188 42.2149 119.38 42.1869 119.576C42.1682 119.762 42.1216 119.944 42.0469 120.122L40.8989 119.968C41.0016 119.716 41.0529 119.464 41.0529 119.212C41.0529 119.016 41.0249 118.852 40.9689 118.722C40.9222 118.582 40.8476 118.465 40.7449 118.372C40.6516 118.269 40.5396 118.185 40.4089 118.12C40.2782 118.054 40.1289 117.989 39.9609 117.924L38.9109 117.518L32.2329 120.276Z" fill="black" fill-opacity="0.1"/>
</g>
<defs>
<clipPath id="clip0">
<rect width="61" height="150" fill="white" transform="translate(0.243896)"/>
</clipPath>
</defs>
</svg>
