<svg width="300" height="300" viewBox="0 0 300 300" fill="none" xmlns="http://www.w3.org/2000/svg">
<mask id="path-1-inside-1" fill="white">
<path fill-rule="evenodd" clip-rule="evenodd" d="M166.027 4C168.221 4 170 5.77869 170 7.9728C170 9.9496 171.455 11.6195 173.404 11.9476C181.17 13.2546 188.72 15.2012 195.996 17.7312C197.949 18.4103 200.122 17.5896 201.083 15.7588C202.135 13.7563 204.61 12.9852 206.613 14.0366L231.905 27.3152C234.027 28.4291 234.844 31.0521 233.73 33.1738C232.727 35.0841 233.284 37.4353 234.998 38.7464C240.936 43.2896 246.499 48.2973 251.633 53.7153C253.171 55.3377 255.662 55.639 257.501 54.3695C259.52 52.9767 262.285 53.4837 263.677 55.5019L279.576 78.5396C281.009 80.6164 280.488 83.4619 278.411 84.8952C276.534 86.1906 275.907 88.6685 276.874 90.7343C279.941 97.2897 282.515 104.122 284.549 111.183C285.189 113.408 287.33 114.879 289.629 114.6C292.157 114.293 294.456 116.094 294.763 118.623L298.103 146.146C298.414 148.702 296.593 151.026 294.037 151.336C291.718 151.618 289.974 153.571 289.878 155.904C289.573 163.248 288.703 170.445 287.309 177.454C286.858 179.723 288.076 182.013 290.24 182.833C292.632 183.741 293.836 186.416 292.929 188.809L283.062 214.824C282.172 217.17 279.549 218.351 277.203 217.461C275.069 216.652 272.673 217.555 271.538 219.535C267.861 225.948 263.692 232.042 259.081 237.765C257.68 239.504 257.698 242.005 259.178 243.677C260.819 245.529 260.647 248.361 258.795 250.002L237.655 268.724C235.885 270.292 233.18 270.128 231.612 268.358C230.179 266.74 227.77 266.45 225.956 267.624C219.591 271.742 212.87 275.359 205.85 278.416C203.957 279.241 202.9 281.298 203.394 283.303C203.943 285.53 202.582 287.781 200.355 288.329L172.269 295.249C170.166 295.767 168.042 294.482 167.524 292.379C167.05 290.458 165.22 289.196 163.249 289.381C158.888 289.791 154.468 290 150 290C146.456 290 142.943 289.868 139.465 289.61C137.59 289.47 135.869 290.683 135.418 292.509C134.918 294.538 132.867 295.778 130.837 295.278L102.011 288.171C100.121 287.704 98.966 285.794 99.432 283.904C99.8583 282.175 98.9262 280.404 97.2767 279.733C89.5646 276.596 82.1953 272.791 75.2405 268.39C73.8046 267.481 71.9155 267.725 70.7887 268.997C69.5402 270.406 67.3858 270.536 65.9767 269.288L43.2531 249.155C41.917 247.971 41.7935 245.929 42.9772 244.593C44.0584 243.372 44.0582 241.54 43.0061 240.295C37.5153 233.795 32.606 226.789 28.3585 219.355C27.5813 217.995 25.9347 217.382 24.4698 217.937C22.8498 218.551 21.0388 217.736 20.4247 216.116L9.50185 187.301C8.90533 185.727 9.69745 183.968 11.2711 183.371C12.7025 182.829 13.5055 181.309 13.1811 179.813C11.3772 171.496 10.3125 162.904 10.059 154.108C10.015 152.581 8.87346 151.301 7.35684 151.116C5.68758 150.913 4.49886 149.396 4.70175 147.727L8.43005 117.052C8.63364 115.377 10.1565 114.184 11.8315 114.388C13.351 114.573 14.769 113.603 15.1822 112.129C17.5285 103.759 20.6334 95.7063 24.418 88.0491C25.1124 86.6441 24.69 84.9348 23.4003 84.0444C21.9866 83.0684 21.6317 81.1312 22.6077 79.7175L40.0054 54.517C41.0304 53.0322 43.0651 52.6595 44.5498 53.6845C45.8908 54.6103 47.7059 54.4034 48.8324 53.2261C54.6391 47.1574 60.9864 41.6103 67.797 36.6621C69.1728 35.6626 69.6307 33.8076 68.8405 32.3019C67.9755 30.6536 68.6104 28.6162 70.2587 27.7512L96.871 13.7854C98.6194 12.8678 100.781 13.5414 101.698 15.2898C102.525 16.8651 104.382 17.5881 106.072 17.0303C113.689 14.5152 121.596 12.6363 129.73 11.4567C131.593 11.1865 133 9.60547 133 7.72257C133 5.66665 134.667 4 136.722 4H166.027ZM150 167C159.389 167 167 159.389 167 150C167 140.611 159.389 133 150 133C140.611 133 133 140.611 133 150C133 159.389 140.611 167 150 167Z"/>
</mask>
<path d="M173.404 11.9476L173.736 9.97531L173.736 9.97531L173.404 11.9476ZM195.996 17.7312L196.653 15.8421L196.653 15.8421L195.996 17.7312ZM201.083 15.7588L199.313 14.8292L199.313 14.8292L201.083 15.7588ZM206.613 14.0366L207.543 12.2658L207.543 12.2658L206.613 14.0366ZM231.905 27.3152L230.975 29.086L230.975 29.086L231.905 27.3152ZM233.73 33.1738L231.959 32.2441L231.959 32.2441L233.73 33.1738ZM234.998 38.7464L233.783 40.3348L233.783 40.3348L234.998 38.7464ZM251.633 53.7153L253.085 52.3396L253.085 52.3396L251.633 53.7153ZM257.501 54.3695L258.637 56.0156L258.637 56.0156L257.501 54.3695ZM263.677 55.5019L262.031 56.6379L262.031 56.6379L263.677 55.5019ZM279.576 78.5396L277.93 79.6756L277.93 79.6756L279.576 78.5396ZM278.411 84.8952L279.547 86.5412L279.547 86.5412L278.411 84.8952ZM276.874 90.7343L278.685 89.8867L278.685 89.8867L276.874 90.7343ZM284.549 111.183L282.627 111.737L282.627 111.737L284.549 111.183ZM289.629 114.6L289.388 112.614L289.388 112.614L289.629 114.6ZM294.763 118.623L296.748 118.382L296.748 118.382L294.763 118.623ZM298.103 146.146L300.089 145.905L300.089 145.905L298.103 146.146ZM294.037 151.336L294.278 153.322L294.278 153.322L294.037 151.336ZM289.878 155.904L287.879 155.821L287.879 155.821L289.878 155.904ZM287.309 177.454L289.271 177.844L289.271 177.844L287.309 177.454ZM290.24 182.833L289.53 184.703L289.53 184.703L290.24 182.833ZM292.929 188.809L291.059 188.1L291.059 188.1L292.929 188.809ZM283.062 214.824L284.932 215.533L284.932 215.533L283.062 214.824ZM277.203 217.461L276.494 219.331L276.494 219.331L277.203 217.461ZM271.538 219.535L273.273 220.53L273.273 220.53L271.538 219.535ZM259.081 237.765L257.523 236.51L257.523 236.51L259.081 237.765ZM259.178 243.677L260.675 242.351L260.675 242.351L259.178 243.677ZM258.795 250.002L257.469 248.505L257.469 248.505L258.795 250.002ZM237.655 268.724L236.329 267.227L236.329 267.227L237.655 268.724ZM231.612 268.358L230.115 269.684L230.115 269.684L231.612 268.358ZM225.956 267.624L227.043 269.303L227.043 269.303L225.956 267.624ZM205.85 278.416L206.648 280.25L206.648 280.25L205.85 278.416ZM203.394 283.303L201.452 283.781L201.452 283.781L203.394 283.303ZM200.355 288.329L200.833 290.271L200.833 290.271L200.355 288.329ZM172.269 295.249L172.747 297.191L172.747 297.191L172.269 295.249ZM167.524 292.379L169.466 291.901L169.466 291.901L167.524 292.379ZM163.249 289.381L163.062 287.39L163.062 287.39L163.249 289.381ZM139.465 289.61L139.317 291.604L139.317 291.604L139.465 289.61ZM135.418 292.509L133.477 292.03L133.477 292.03L135.418 292.509ZM130.837 295.278L131.316 293.336L131.316 293.336L130.837 295.278ZM102.011 288.171L101.532 290.112L101.532 290.112L102.011 288.171ZM99.432 283.904L101.374 284.383L101.374 284.383L99.432 283.904ZM97.2767 279.733L96.5231 281.585L96.5231 281.585L97.2767 279.733ZM75.2405 268.39L76.3099 266.7L76.3099 266.7L75.2405 268.39ZM70.7887 268.997L72.2856 270.323L72.2857 270.323L70.7887 268.997ZM65.9767 269.288L64.6504 270.785L64.6504 270.785L65.9767 269.288ZM43.2531 249.155L41.9268 250.652L41.9268 250.652L43.2531 249.155ZM42.9772 244.593L44.4742 245.919L44.4742 245.919L42.9772 244.593ZM43.0061 240.295L41.4783 241.586L41.4783 241.586L43.0061 240.295ZM28.3585 219.355L26.622 220.347L26.622 220.347L28.3585 219.355ZM24.4698 217.937L23.7609 216.067L23.7608 216.067L24.4698 217.937ZM20.4247 216.116L18.5546 216.825L18.5546 216.825L20.4247 216.116ZM9.50185 187.301L11.372 186.592L11.372 186.592L9.50185 187.301ZM11.2711 183.371L10.5622 181.501L10.5622 181.501L11.2711 183.371ZM13.1811 179.813L11.2265 180.237L11.2265 180.237L13.1811 179.813ZM10.059 154.108L12.0582 154.05L10.059 154.108ZM7.35684 151.116L7.11552 153.102L7.11552 153.102L7.35684 151.116ZM4.70175 147.727L6.68714 147.968L6.68714 147.968L4.70175 147.727ZM8.43005 117.052L6.44467 116.811L6.44467 116.811L8.43005 117.052ZM11.8315 114.388L11.5902 116.373L11.5902 116.373L11.8315 114.388ZM15.1822 112.129L13.2564 111.59L13.2564 111.59L15.1822 112.129ZM24.418 88.0491L26.2109 88.9353L26.2109 88.9353L24.418 88.0491ZM23.4003 84.0444L24.5365 82.3985L24.5365 82.3985L23.4003 84.0444ZM22.6077 79.7175L20.9618 78.5812L20.9618 78.5812L22.6077 79.7175ZM40.0054 54.517L38.3595 53.3807L38.3595 53.3807L40.0054 54.517ZM44.5498 53.6845L45.6861 52.0387L45.6861 52.0387L44.5498 53.6845ZM48.8324 53.2261L47.3873 51.8434L47.3873 51.8434L48.8324 53.2261ZM67.797 36.6621L68.9726 38.2801L68.9726 38.2801L67.797 36.6621ZM68.8405 32.3019L70.6114 31.3725L70.6114 31.3725L68.8405 32.3019ZM70.2587 27.7512L71.1881 29.5221L71.1881 29.5221L70.2587 27.7512ZM96.871 13.7854L95.9416 12.0144L96.871 13.7854ZM101.698 15.2898L99.9273 16.2192L99.9273 16.2192L101.698 15.2898ZM106.072 17.0303L105.445 15.1311L105.445 15.1311L106.072 17.0303ZM129.73 11.4567L130.017 13.436L130.017 13.436L129.73 11.4567ZM172 7.9728C172 4.67412 169.326 2 166.027 2V6C167.117 6 168 6.88325 168 7.9728H172ZM173.736 9.97531C172.719 9.80425 172 8.94298 172 7.9728H168C168 10.9562 170.19 13.4348 173.072 13.9198L173.736 9.97531ZM196.653 15.8421C189.272 13.2757 181.614 11.3011 173.736 9.97531L173.072 13.9198C180.727 15.2082 188.168 17.1267 195.339 19.6203L196.653 15.8421ZM199.313 14.8292C198.827 15.7551 197.701 16.2067 196.653 15.8421L195.339 19.6203C198.197 20.6139 201.418 19.4242 202.854 16.6885L199.313 14.8292ZM207.543 12.2658C204.562 10.701 200.877 11.8487 199.313 14.8292L202.854 16.6885C203.392 15.664 204.659 15.2695 205.683 15.8074L207.543 12.2658ZM232.835 25.5444L207.543 12.2658L205.683 15.8074L230.975 29.086L232.835 25.5444ZM235.501 34.1035C237.128 31.0038 235.934 27.1718 232.835 25.5444L230.975 29.086C232.119 29.6865 232.559 31.1004 231.959 32.2441L235.501 34.1035ZM236.213 37.1581C235.247 36.419 234.966 35.1224 235.501 34.1035L231.959 32.2441C230.488 35.0459 231.322 38.4516 233.783 40.3348L236.213 37.1581ZM253.085 52.3396C247.878 46.8447 242.235 41.7658 236.213 37.1581L233.783 40.3348C239.636 44.8134 245.12 49.7499 250.182 55.091L253.085 52.3396ZM256.365 52.7234C255.365 53.4138 253.968 53.2713 253.085 52.3396L250.182 55.091C252.374 57.404 255.959 57.8643 258.637 56.0156L256.365 52.7234ZM265.324 54.3659C263.303 51.4386 259.293 50.7033 256.365 52.7234L258.637 56.0156C259.746 55.2502 261.266 55.5288 262.031 56.6379L265.324 54.3659ZM281.222 77.4036L265.324 54.3659L262.031 56.6379L277.93 79.6756L281.222 77.4036ZM279.547 86.5412C282.533 84.4806 283.283 80.3896 281.222 77.4036L277.93 79.6756C278.736 80.8433 278.443 82.4432 277.275 83.2491L279.547 86.5412ZM278.685 89.8867C278.117 88.6737 278.502 87.2622 279.547 86.5412L277.275 83.2491C274.565 85.119 273.696 88.6634 275.062 91.582L278.685 89.8867ZM286.471 110.63C284.408 103.467 281.796 96.5362 278.685 89.8867L275.062 91.582C278.085 98.0432 280.623 104.777 282.627 111.737L286.471 110.63ZM289.388 112.614C288.099 112.771 286.85 111.946 286.471 110.63L282.627 111.737C283.529 114.87 286.561 116.987 289.87 116.585L289.388 112.614ZM296.748 118.382C296.308 114.757 293.013 112.174 289.388 112.614L289.87 116.585C291.302 116.411 292.604 117.432 292.778 118.864L296.748 118.382ZM300.089 145.905L296.748 118.382L292.778 118.864L296.118 146.387L300.089 145.905ZM294.278 153.322C297.93 152.878 300.532 149.558 300.089 145.905L296.118 146.387C296.295 147.847 295.255 149.174 293.796 149.351L294.278 153.322ZM291.876 155.987C291.934 154.598 292.967 153.481 294.278 153.322L293.796 149.351C290.47 149.755 288.015 152.545 287.879 155.821L291.876 155.987ZM289.271 177.844C290.684 170.734 291.567 163.434 291.876 155.987L287.879 155.821C287.579 163.061 286.721 170.156 285.348 177.064L289.271 177.844ZM290.949 180.963C289.732 180.502 289.003 179.19 289.271 177.844L285.348 177.064C284.713 180.256 286.42 183.524 289.53 184.703L290.949 180.963ZM294.799 189.518C296.098 186.093 294.374 182.262 290.949 180.963L289.53 184.703C290.89 185.219 291.575 186.74 291.059 188.1L294.799 189.518ZM284.932 215.533L294.799 189.518L291.059 188.1L281.192 214.115L284.932 215.533ZM276.494 219.331C279.873 220.612 283.651 218.912 284.932 215.533L281.192 214.115C280.694 215.428 279.226 216.089 277.913 215.591L276.494 219.331ZM273.273 220.53C273.937 219.372 275.312 218.882 276.494 219.331L277.913 215.591C274.827 214.421 271.41 215.738 269.803 218.54L273.273 220.53ZM260.638 239.02C265.315 233.215 269.544 227.034 273.273 220.53L269.803 218.54C266.179 224.861 262.069 230.868 257.523 236.51L260.638 239.02ZM260.675 242.351C259.864 241.435 259.828 240.025 260.638 239.02L257.523 236.51C255.532 238.982 255.531 242.576 257.681 245.003L260.675 242.351ZM260.121 251.499C262.8 249.126 263.048 245.03 260.675 242.351L257.681 245.003C258.589 246.028 258.494 247.596 257.469 248.505L260.121 251.499ZM238.981 270.221L260.121 251.499L257.469 248.505L236.329 267.227L238.981 270.221ZM230.115 269.684C232.415 272.281 236.384 272.521 238.981 270.221L236.329 267.227C235.386 268.062 233.944 267.975 233.109 267.032L230.115 269.684ZM227.043 269.303C228.055 268.648 229.36 268.831 230.115 269.684L233.109 267.032C230.999 264.649 227.486 264.252 224.87 265.944L227.043 269.303ZM206.648 280.25C213.77 277.148 220.587 273.48 227.043 269.303L224.87 265.944C218.595 270.005 211.971 273.569 205.051 276.583L206.648 280.25ZM205.336 282.824C205.083 281.796 205.62 280.698 206.648 280.25L205.051 276.583C202.294 277.784 200.717 280.799 201.452 283.781L205.336 282.824ZM200.833 290.271C204.133 289.458 206.149 286.124 205.336 282.824L201.452 283.781C201.737 284.936 201.031 286.103 199.876 286.388L200.833 290.271ZM172.747 297.191L200.833 290.271L199.876 286.388L171.791 293.307L172.747 297.191ZM165.582 292.858C166.364 296.033 169.572 297.973 172.747 297.191L171.791 293.307C170.76 293.561 169.72 292.931 169.466 291.901L165.582 292.858ZM163.436 291.372C164.451 291.277 165.353 291.928 165.582 292.858L169.466 291.901C168.748 288.988 165.989 287.115 163.062 287.39L163.436 291.372ZM150 292C154.531 292 159.013 291.788 163.436 291.372L163.062 287.39C158.763 287.794 154.406 288 150 288V292ZM139.317 291.604C142.844 291.866 146.407 292 150 292V288C146.506 288 143.042 287.87 139.614 287.615L139.317 291.604ZM137.36 292.987C137.57 292.137 138.387 291.535 139.317 291.604L139.614 287.615C136.794 287.405 134.167 289.229 133.477 292.03L137.36 292.987ZM130.359 297.219C133.461 297.984 136.596 296.09 137.36 292.987L133.477 292.03C133.241 292.987 132.273 293.572 131.316 293.336L130.359 297.219ZM101.532 290.112L130.359 297.219L131.316 293.336L102.49 286.229L101.532 290.112ZM97.4902 283.425C96.7597 286.388 98.5694 289.382 101.532 290.112L102.49 286.229C101.672 286.027 101.172 285.2 101.374 284.383L97.4902 283.425ZM96.5231 281.585C97.2783 281.893 97.6721 282.687 97.4902 283.425L101.374 284.383C102.045 281.662 100.574 278.915 98.0303 277.88L96.5231 281.585ZM74.171 270.08C81.2251 274.543 88.7 278.403 96.5231 281.585L98.0303 277.88C90.4292 274.788 83.1655 271.038 76.3099 266.7L74.171 270.08ZM72.2857 270.323C72.7449 269.805 73.542 269.682 74.171 270.08L76.3099 266.7C74.0671 265.28 71.0862 265.645 69.2917 267.67L72.2857 270.323ZM64.6504 270.785C66.8863 272.765 70.3047 272.559 72.2856 270.323L69.2917 267.67C68.7757 268.253 67.8853 268.307 67.303 267.791L64.6504 270.785ZM41.9268 250.652L64.6504 270.785L67.303 267.791L44.5794 247.658L41.9268 250.652ZM41.4802 243.266C39.564 245.429 39.764 248.736 41.9268 250.652L44.5794 247.658C44.0701 247.207 44.023 246.428 44.4742 245.919L41.4802 243.266ZM41.4783 241.586C41.9055 242.091 41.8861 242.808 41.4802 243.266L44.4742 245.919C46.2307 243.936 46.2109 240.989 44.5339 239.004L41.4783 241.586ZM26.622 220.347C30.9303 227.887 35.9095 234.994 41.4783 241.586L44.5339 239.004C39.1211 232.597 34.2818 225.69 30.095 218.363L26.622 220.347ZM25.1787 219.807C25.701 219.609 26.321 219.82 26.622 220.347L30.095 218.363C28.8416 216.169 26.1683 215.155 23.7609 216.067L25.1787 219.807ZM18.5546 216.825C19.5601 219.478 22.5259 220.813 25.1787 219.807L23.7608 216.067C23.1737 216.29 22.5174 215.994 22.2948 215.407L18.5546 216.825ZM7.6317 188.01L18.5546 216.825L22.2948 215.407L11.372 186.592L7.6317 188.01ZM10.5622 181.501C7.95569 182.489 6.64367 185.403 7.6317 188.01L11.372 186.592C11.167 186.051 11.4392 185.447 11.98 185.242L10.5622 181.501ZM11.2265 180.237C11.3462 180.789 11.0457 181.318 10.5622 181.501L11.98 185.242C14.3592 184.34 15.6649 181.83 15.1356 179.389L11.2265 180.237ZM8.05985 154.166C8.31687 163.085 9.3967 171.8 11.2265 180.237L15.1356 179.389C13.3578 171.192 12.3081 162.722 12.0582 154.05L8.05985 154.166ZM7.11552 153.102C7.62706 153.164 8.04367 153.604 8.05985 154.166L12.0582 154.05C11.9864 151.558 10.1199 149.437 7.59816 149.131L7.11552 153.102ZM2.71636 147.485C2.3802 150.251 4.34977 152.766 7.11552 153.102L7.59816 149.131C7.02539 149.061 6.61752 148.541 6.68714 147.968L2.71636 147.485ZM6.44467 116.811L2.71636 147.485L6.68714 147.968L10.4154 117.293L6.44467 116.811ZM12.0729 112.403C9.30135 112.066 6.78153 114.039 6.44467 116.811L10.4154 117.293C10.4858 116.715 11.0117 116.303 11.5902 116.373L12.0729 112.403ZM13.2564 111.59C13.1033 112.136 12.5886 112.465 12.0729 112.403L11.5902 116.373C14.1133 116.68 16.4347 115.071 17.1079 112.669L13.2564 111.59ZM22.625 87.1629C18.7861 94.93 15.6366 103.099 13.2564 111.59L17.1079 112.669C19.4205 104.42 22.4807 96.4826 26.2109 88.9353L22.625 87.1629ZM22.264 85.6903C22.7169 86.0029 22.8903 86.6261 22.625 87.1629L26.2109 88.9353C27.3345 86.662 26.6632 83.8667 24.5365 82.3985L22.264 85.6903ZM20.9618 78.5812C19.3583 80.9039 19.9413 84.0867 22.264 85.6903L24.5365 82.3985C24.0318 82.0501 23.9051 81.3585 24.2536 80.8538L20.9618 78.5812ZM38.3595 53.3807L20.9618 78.5812L24.2536 80.8538L41.6512 55.6532L38.3595 53.3807ZM45.6861 52.0387C43.2923 50.3861 40.0121 50.9869 38.3595 53.3807L41.6512 55.6532C42.0488 55.0774 42.8378 54.9329 43.4136 55.3304L45.6861 52.0387ZM47.3873 51.8434C46.9227 52.329 46.1984 52.3923 45.6861 52.0387L43.4136 55.3304C45.5832 56.8282 48.4891 56.4778 50.2774 54.6088L47.3873 51.8434ZM66.6215 35.0441C59.7139 40.0627 53.2764 45.6886 47.3873 51.8434L50.2774 54.6088C56.0017 48.6262 62.2589 43.1579 68.9726 38.2801L66.6215 35.0441ZM67.0695 33.2313C67.3862 33.8347 67.2152 34.6127 66.6215 35.0441L68.9726 38.2801C71.1303 36.7124 71.8751 33.7805 70.6114 31.3725L67.0695 33.2313ZM69.3294 25.9802C66.703 27.3585 65.6912 30.6049 67.0695 33.2313L70.6114 31.3725C70.2597 30.7023 70.5179 29.8739 71.1881 29.5221L69.3294 25.9802ZM95.9416 12.0144L69.3294 25.9802L71.1881 29.5221L97.8003 15.5563L95.9416 12.0144ZM103.469 14.3604C102.038 11.6339 98.6681 10.5836 95.9416 12.0144L97.8003 15.5563C98.5707 15.152 99.523 15.4488 99.9273 16.2192L103.469 14.3604ZM105.445 15.1311C104.658 15.3908 103.829 15.0454 103.469 14.3604L99.9273 16.2192C101.221 18.6848 104.107 19.7854 106.699 18.9295L105.445 15.1311ZM129.442 9.47743C121.193 10.6739 113.172 12.5798 105.445 15.1311L106.699 18.9295C114.207 16.4506 122 14.5987 130.017 13.436L129.442 9.47743ZM131 7.72257C131 8.58275 130.351 9.34559 129.442 9.47743L130.017 13.436C132.834 13.0273 135 10.6282 135 7.72257H131ZM136.722 2C133.562 2 131 4.56209 131 7.72257H135C135 6.77122 135.771 6 136.722 6V2ZM166.027 2H136.722V6H166.027V2ZM165 150C165 158.284 158.284 165 150 165V169C160.493 169 169 160.493 169 150H165ZM150 135C158.284 135 165 141.716 165 150H169C169 139.507 160.493 131 150 131V135ZM135 150C135 141.716 141.716 135 150 135V131C139.507 131 131 139.507 131 150H135ZM150 165C141.716 165 135 158.284 135 150H131C131 160.493 139.507 169 150 169V165Z" fill="black" mask="url(#path-1-inside-1)"/>
<circle cx="150" cy="150" r="133" stroke="black" stroke-opacity="0.25" stroke-width="2"/>
<circle cx="150" cy="150" r="27" stroke="black" stroke-opacity="0.25" stroke-width="2"/>
<mask id="path-5-inside-2" fill="white">
<path fill-rule="evenodd" clip-rule="evenodd" d="M138 28C133.029 28 129 32.0294 129 37V44C129 48.9706 133.029 53 138 53H162.722L164.239 90.5497C161.616 93.2509 160 96.9368 160 101C160 109.284 166.716 116 175 116C183.284 116 190 109.284 190 101C190 94.4583 185.812 88.8947 179.972 86.8435L171.53 51.7785C174.204 50.2182 176 47.3189 176 44V37C176 32.0294 171.971 28 167 28H138Z"/>
</mask>
<path d="M162.722 53L164.721 52.9193L164.643 51H162.722V53ZM164.239 90.5497L165.674 91.9432L166.272 91.3271L166.238 90.4689L164.239 90.5497ZM179.972 86.8435L178.027 87.3116L178.282 88.3699L179.309 88.7305L179.972 86.8435ZM171.53 51.7785L170.522 50.0512L169.237 50.8008L169.586 52.2466L171.53 51.7785ZM131 37C131 33.134 134.134 30 138 30V26C131.925 26 127 30.9249 127 37H131ZM131 44V37H127V44H131ZM138 51C134.134 51 131 47.866 131 44H127C127 50.0751 131.925 55 138 55V51ZM162.722 51H138V55H162.722V51ZM160.724 53.0807L162.241 90.6304L166.238 90.4689L164.721 52.9193L160.724 53.0807ZM162.805 89.1562C159.833 92.2156 158 96.3958 158 101H162C162 97.4778 163.398 94.2862 165.674 91.9432L162.805 89.1562ZM158 101C158 110.389 165.611 118 175 118V114C167.82 114 162 108.18 162 101H158ZM175 118C184.389 118 192 110.389 192 101H188C188 108.18 182.18 114 175 114V118ZM192 101C192 93.5829 187.251 87.2802 180.634 84.9565L179.309 88.7305C184.374 90.5091 188 95.3336 188 101H192ZM181.916 86.3754L173.474 51.3104L169.586 52.2466L178.027 87.3116L181.916 86.3754ZM174 44C174 46.5789 172.607 48.8345 170.522 50.0512L172.538 53.5059C175.801 51.6018 178 48.0589 178 44H174ZM174 37V44H178V37H174ZM167 30C170.866 30 174 33.134 174 37H178C178 30.9249 173.075 26 167 26V30ZM138 30H167V26H138V30Z" fill="black" fill-opacity="0.25" mask="url(#path-5-inside-2)"/>
<path d="M76.8188 206.623C75.3153 207.627 73.8472 208.015 72.4143 207.787C70.9865 207.566 69.691 206.76 68.528 205.37C67.7158 204.4 67.2391 203.337 67.0978 202.182C66.9615 201.033 67.1663 199.883 67.7122 198.734C68.2641 197.58 69.1098 196.521 70.2493 195.557L71.948 194.136C73.1104 193.163 74.3115 192.505 75.5512 192.16C76.7908 191.816 77.9717 191.821 79.0937 192.176C80.2267 192.532 81.2093 193.207 82.0415 194.202C83.2146 195.604 83.7591 197.028 83.6749 198.473C83.6017 199.92 82.9521 201.268 81.7262 202.518L80.7938 201.403C82.7862 199.268 82.8875 197.13 81.0978 194.991C80.1052 193.805 78.8697 193.229 77.3913 193.264C75.918 193.305 74.3994 193.979 72.8355 195.288L71.2356 196.626C69.7257 197.89 68.807 199.239 68.4798 200.674C68.1575 202.115 68.4851 203.42 69.4627 204.588C70.4302 205.745 71.4353 206.386 72.4778 206.512C73.5264 206.633 74.6626 206.299 75.8864 205.509L76.8188 206.623Z" fill="black" fill-opacity="0.1"/>
<path d="M83.6775 217.281L93.3191 211.409L94.4854 212.371L80.8697 220.372L80.2352 220.7C78.7196 221.445 77.4012 221.355 76.2801 220.431C76.0209 220.217 75.7784 219.946 75.5527 219.618L76.2817 218.716L76.7976 219.232C77.328 219.67 77.8653 219.89 78.4095 219.893C78.9547 219.907 79.6053 219.689 80.3612 219.239L81.9289 218.314L86.2398 205.571L87.4242 206.548L83.6775 217.281Z" fill="black" fill-opacity="0.1"/>
<path d="M105.104 226.419C104.13 228.14 102.977 229.291 101.642 229.874C100.311 230.449 99.0064 230.376 97.7279 229.653C96.2183 228.799 95.3623 227.614 95.1599 226.1L91.9752 231.73L90.7614 231.044L99.4038 215.764L100.536 216.404L99.7146 218C101.176 217.273 102.661 217.337 104.171 218.191C105.49 218.937 106.241 220.021 106.423 221.444C106.613 222.871 106.205 224.471 105.202 226.246L105.104 226.419ZM104.001 225.513C104.797 224.105 105.137 222.83 105.02 221.687C104.904 220.544 104.329 219.68 103.295 219.096C102.547 218.673 101.803 218.489 101.061 218.546C100.32 218.603 99.6129 218.893 98.9388 219.419L95.9445 224.713C95.8792 225.51 96.0243 226.23 96.3799 226.871C96.7354 227.512 97.2838 228.042 98.025 228.461C99.0519 229.042 100.082 229.086 101.114 228.593C102.158 228.097 103.12 227.07 104.001 225.513Z" fill="black" fill-opacity="0.1"/>
<path d="M115.224 226.123C115.906 225.555 116.654 225.192 117.468 225.033C118.282 224.875 119.092 224.934 119.898 225.21C121.184 225.65 122.017 226.341 122.397 227.28C122.776 228.22 122.722 229.415 122.233 230.866L119.535 238.737L118.216 238.285L120.917 230.403C121.277 229.329 121.322 228.452 121.051 227.773C120.787 227.096 120.164 226.589 119.181 226.252C118.361 225.971 117.544 225.98 116.731 226.28C115.928 226.574 115.226 227.106 114.624 227.874L111.808 236.089L110.489 235.636L116.326 218.609L117.645 219.061L115.224 226.123Z" fill="black" fill-opacity="0.1"/>
<path d="M133.944 242.082C132.878 241.92 131.952 241.511 131.167 240.854C130.389 240.199 129.832 239.368 129.495 238.361C129.159 237.346 129.079 236.255 129.256 235.089L129.332 234.59C129.515 233.385 129.911 232.335 130.521 231.44C131.138 230.546 131.906 229.888 132.823 229.466C133.742 229.037 134.688 228.896 135.661 229.043C137.183 229.274 138.309 229.978 139.039 231.156C139.778 232.327 140.011 233.812 139.738 235.612L139.62 236.388L130.675 235.031L130.635 235.298C130.419 236.719 130.645 237.966 131.312 239.039C131.988 240.106 132.944 240.733 134.18 240.92C134.921 241.033 135.594 240.996 136.199 240.812C136.812 240.628 137.395 240.274 137.949 239.75L138.717 240.542C137.474 241.862 135.883 242.376 133.944 242.082ZM135.482 230.225C134.439 230.067 133.501 230.316 132.666 230.971C131.84 231.628 131.251 232.59 130.901 233.856L138.42 234.997L138.443 234.846C138.587 233.636 138.393 232.602 137.859 231.747C137.325 230.892 136.532 230.384 135.482 230.225Z" fill="black" fill-opacity="0.1"/>
<path d="M153.189 231.505C152.891 231.452 152.575 231.426 152.239 231.427C151.364 231.432 150.623 231.681 150.016 232.176C149.417 232.664 148.991 233.373 148.737 234.304L148.779 243.011L147.385 243.017L147.323 230.338L148.694 230.331L148.728 232.347C149.463 230.843 150.65 230.087 152.291 230.079C152.682 230.078 152.99 230.127 153.217 230.227L153.189 231.505Z" fill="black" fill-opacity="0.1"/>
<path d="M164.38 237.465L165.433 239.951L165.551 237.342L166.631 224.278L167.904 224.015L174.032 235.588L175.169 237.962L175.178 235.231L175.673 222.408L177.119 222.109L176.295 239.703L174.941 239.983L168.45 227.695L167.684 226.131L167.612 227.869L166.437 241.742L165.083 242.022L157.358 226.196L158.804 225.897L164.38 237.465Z" fill="black" fill-opacity="0.1"/>
<path d="M185.409 225.508C185.514 224.628 185.808 223.85 186.291 223.175C186.773 222.501 187.402 221.987 188.177 221.634C189.414 221.071 190.493 221 191.415 221.421C192.337 221.843 193.118 222.749 193.76 224.139L197.209 231.711L195.939 232.289L192.486 224.706C192.01 223.679 191.439 223.011 190.776 222.704C190.119 222.393 189.318 222.453 188.373 222.884C187.584 223.243 186.997 223.811 186.612 224.587C186.231 225.353 186.086 226.222 186.176 227.194L189.775 235.096L188.506 235.674L181.046 219.293L182.315 218.715L185.409 225.508Z" fill="black" fill-opacity="0.1"/>
<path d="M209.975 224.24C209.09 224.855 208.136 225.194 207.115 225.256C206.099 225.315 205.123 225.094 204.186 224.594C203.244 224.087 202.437 223.349 201.764 222.38L201.477 221.966C200.782 220.965 200.348 219.93 200.176 218.861C200.01 217.787 200.116 216.781 200.493 215.844C200.865 214.901 201.455 214.149 202.264 213.587C203.528 212.709 204.83 212.447 206.169 212.801C207.511 213.144 208.7 214.063 209.739 215.558L210.187 216.203L202.756 221.364L202.91 221.585C203.73 222.766 204.751 223.517 205.973 223.838C207.196 224.148 208.322 223.947 209.348 223.234C209.964 222.806 210.429 222.317 210.741 221.768C211.06 221.213 211.24 220.555 211.282 219.794L212.385 219.841C212.389 221.655 211.586 223.121 209.975 224.24ZM202.945 214.569C202.079 215.171 201.568 215.996 201.413 217.046C201.263 218.091 201.497 219.194 202.113 220.355L208.359 216.017L208.273 215.892C207.545 214.913 206.694 214.296 205.718 214.042C204.742 213.787 203.818 213.963 202.945 214.569Z" fill="black" fill-opacity="0.1"/>
<path d="M224.116 212.409C223.351 213.169 222.471 213.668 221.476 213.908C220.486 214.142 219.486 214.094 218.477 213.765C217.461 213.429 216.538 212.843 215.707 212.006L215.352 211.649C214.493 210.784 213.886 209.84 213.531 208.816C213.181 207.788 213.11 206.779 213.318 205.791C213.52 204.798 213.971 203.954 214.669 203.26C215.761 202.176 216.998 201.691 218.378 201.807C219.759 201.911 221.091 202.609 222.373 203.901L222.926 204.458L216.507 210.832L216.697 211.024C217.709 212.044 218.845 212.606 220.105 212.71C221.364 212.803 222.437 212.409 223.324 211.528C223.856 210.999 224.228 210.437 224.44 209.841C224.658 209.24 224.721 208.561 224.63 207.804L225.724 207.658C226.044 209.444 225.508 211.027 224.116 212.409ZM215.511 204.109C214.763 204.852 214.403 205.754 214.433 206.814C214.468 207.87 214.889 208.915 215.698 209.951L221.095 204.593L220.987 204.484C220.101 203.647 219.155 203.188 218.15 203.107C217.145 203.026 216.265 203.36 215.511 204.109Z" fill="black" fill-opacity="0.1"/>
<path d="M233.782 200.933L232.933 202.054L218.584 191.187L219.432 190.066L233.782 200.933Z" fill="black" fill-opacity="0.1"/>
</svg>
