<svg width="240" height="150" viewBox="0 0 240 150" fill="none" xmlns="http://www.w3.org/2000/svg">
<rect x="1" y="1" width="238" height="148" rx="4" stroke="black" stroke-width="2"/>
<g opacity="0.25">
<line y1="19" x2="240" y2="19" stroke="black" stroke-width="2"/>
<line y1="29" x2="240" y2="29" stroke="black" stroke-width="2"/>
<line y1="39" x2="240" y2="39" stroke="black" stroke-width="2"/>
<line y1="49" x2="240" y2="49" stroke="black" stroke-width="2"/>
<line y1="59" x2="240" y2="59" stroke="black" stroke-width="2"/>
<line y1="69" x2="240" y2="69" stroke="black" stroke-width="2"/>
<line y1="79" x2="240" y2="79" stroke="black" stroke-width="2"/>
<line y1="89" x2="240" y2="89" stroke="black" stroke-width="2"/>
<line y1="99" x2="240" y2="99" stroke="black" stroke-width="2"/>
<line y1="109" x2="240" y2="109" stroke="black" stroke-width="2"/>
<line y1="119" x2="240" y2="119" stroke="black" stroke-width="2"/>
<line y1="129" x2="240" y2="129" stroke="black" stroke-width="2"/>
<line y1="139" x2="240" y2="139" stroke="black" stroke-width="2"/>
<line x1="31" y1="4.37114e-08" x2="31" y2="150" stroke="black" stroke-width="2"/>
<line x1="41" y1="20" x2="41" y2="150" stroke="black" stroke-width="2"/>
<line x1="51" y1="20" x2="51" y2="150" stroke="black" stroke-width="2"/>
<line x1="61" y1="4.37114e-08" x2="61" y2="150" stroke="black" stroke-width="2"/>
<line x1="71" y1="20" x2="71" y2="150" stroke="black" stroke-width="2"/>
<line x1="81" y1="20" x2="81" y2="150" stroke="black" stroke-width="2"/>
<line x1="91" y1="4.37114e-08" x2="91" y2="150" stroke="black" stroke-width="2"/>
<line x1="101" y1="20" x2="101" y2="150" stroke="black" stroke-width="2"/>
<line x1="111" y1="20" x2="111" y2="150" stroke="black" stroke-width="2"/>
<line x1="121" y1="4.37114e-08" x2="121" y2="150" stroke="black" stroke-width="2"/>
<line x1="131" y1="20" x2="131" y2="150" stroke="black" stroke-width="2"/>
<line x1="141" y1="20" x2="141" y2="150" stroke="black" stroke-width="2"/>
<line x1="151" y1="4.37114e-08" x2="151" y2="150" stroke="black" stroke-width="2"/>
<line x1="161" y1="20" x2="161" y2="150" stroke="black" stroke-width="2"/>
<line x1="171" y1="20" x2="171" y2="150" stroke="black" stroke-width="2"/>
<line x1="181" y1="4.37114e-08" x2="181" y2="150" stroke="black" stroke-width="2"/>
<line x1="191" y1="20" x2="191" y2="150" stroke="black" stroke-width="2"/>
<line x1="201" y1="20" x2="201" y2="150" stroke="black" stroke-width="2"/>
<line x1="211" y1="4.37114e-08" x2="211" y2="150" stroke="black" stroke-width="2"/>
<line x1="221" y1="20" x2="221" y2="150" stroke="black" stroke-width="2"/>
<line x1="231" y1="20" x2="231" y2="150" stroke="black" stroke-width="2"/>
</g>
</svg>
