<svg width="31" height="75" viewBox="0 0 31 75" fill="none" xmlns="http://www.w3.org/2000/svg">
<g clip-path="url(#clip0)">
<rect x="1.2439" y="1" width="28.5" height="73" stroke="black" stroke-width="2"/>
<path d="M10.2644 67.2584L10.2644 66.6284L13.6804 66.6284L12.2454 65.2004L12.2454 64.3254L13.7504 65.8724L15.5564 64.1924L15.5564 65.0884L13.8344 66.6284L15.5564 66.6284L15.5564 67.2584L10.2644 67.2584ZM14.1284 63.1525C14.2731 63.1525 14.4061 63.1222 14.5274 63.0615C14.6441 62.9962 14.7444 62.9122 14.8284 62.8095C14.9124 62.7068 14.9777 62.5878 15.0244 62.4525C15.0711 62.3172 15.0944 62.1772 15.0944 62.0325C15.0944 61.8365 15.0501 61.6662 14.9614 61.5215C14.8681 61.3768 14.7467 61.2438 14.5974 61.1225L14.9614 60.6465C15.4141 60.9965 15.6404 61.4865 15.6404 62.1165C15.6404 62.3778 15.5961 62.6158 15.5074 62.8305C15.4187 63.0405 15.2974 63.2202 15.1434 63.3695C14.9847 63.5142 14.8004 63.6262 14.5904 63.7055C14.3757 63.7848 14.1447 63.8245 13.8974 63.8245C13.6501 63.8245 13.4214 63.7825 13.2114 63.6985C12.9967 63.6098 12.8124 63.4908 12.6584 63.3415C12.4997 63.1875 12.3761 63.0055 12.2874 62.7955C12.1987 62.5855 12.1544 62.3568 12.1544 62.1095C12.1544 61.8155 12.2057 61.5682 12.3084 61.3675C12.4111 61.1622 12.5464 60.9942 12.7144 60.8635C12.8777 60.7328 13.0644 60.6395 13.2744 60.5835C13.4797 60.5228 13.6897 60.4925 13.9044 60.4925L14.1284 60.4925L14.1284 63.1525ZM13.6244 61.1645C13.4844 61.1692 13.3561 61.1925 13.2394 61.2345C13.1227 61.2718 13.0224 61.3302 12.9384 61.4095C12.8497 61.4888 12.7821 61.5892 12.7354 61.7105C12.6841 61.8272 12.6584 61.9648 12.6584 62.1235C12.6584 62.2775 12.6887 62.4198 12.7494 62.5505C12.8054 62.6765 12.8801 62.7838 12.9734 62.8725C13.0667 62.9612 13.1717 63.0312 13.2884 63.0825C13.4004 63.1292 13.5124 63.1525 13.6244 63.1525L13.6244 61.1645ZM14.1284 59.2628C14.2731 59.2628 14.4061 59.2325 14.5274 59.1718C14.6441 59.1065 14.7444 59.0225 14.8284 58.9198C14.9124 58.8172 14.9777 58.6982 15.0244 58.5628C15.0711 58.4275 15.0944 58.2875 15.0944 58.1428C15.0944 57.9468 15.0501 57.7765 14.9614 57.6318C14.8681 57.4872 14.7467 57.3542 14.5974 57.2328L14.9614 56.7568C15.4141 57.1068 15.6404 57.5968 15.6404 58.2268C15.6404 58.4882 15.5961 58.7262 15.5074 58.9408C15.4187 59.1508 15.2974 59.3305 15.1434 59.4798C14.9847 59.6245 14.8004 59.7365 14.5904 59.8158C14.3757 59.8952 14.1447 59.9348 13.8974 59.9348C13.6501 59.9348 13.4214 59.8928 13.2114 59.8088C12.9967 59.7202 12.8124 59.6012 12.6584 59.4518C12.4997 59.2978 12.3761 59.1158 12.2874 58.9058C12.1987 58.6958 12.1544 58.4672 12.1544 58.2198C12.1544 57.9258 12.2057 57.6785 12.3084 57.4778C12.4111 57.2725 12.5464 57.1045 12.7144 56.9738C12.8777 56.8432 13.0644 56.7498 13.2744 56.6938C13.4797 56.6332 13.6897 56.6028 13.9044 56.6028L14.1284 56.6028L14.1284 59.2628ZM13.6244 57.2748C13.4844 57.2795 13.3561 57.3028 13.2394 57.3448C13.1227 57.3822 13.0224 57.4405 12.9384 57.5198C12.8497 57.5992 12.7821 57.6995 12.7354 57.8208C12.6841 57.9375 12.6584 58.0752 12.6584 58.2338C12.6584 58.3878 12.6887 58.5302 12.7494 58.6608C12.8054 58.7868 12.8801 58.8942 12.9734 58.9828C13.0667 59.0715 13.1717 59.1415 13.2884 59.1928C13.4004 59.2395 13.5124 59.2628 13.6244 59.2628L13.6244 57.2748ZM12.2384 55.8492L12.2384 55.2192L12.7144 55.2192L12.7144 55.2052C12.5371 55.0839 12.3994 54.9182 12.3014 54.7082C12.2034 54.4935 12.1544 54.2742 12.1544 54.0502C12.1544 53.7935 12.1987 53.5625 12.2874 53.3572C12.3761 53.1472 12.4997 52.9699 12.6584 52.8252C12.8171 52.6759 13.0037 52.5615 13.2184 52.4822C13.4284 52.4029 13.6547 52.3632 13.8974 52.3632C14.1447 52.3632 14.3757 52.4029 14.5904 52.4822C14.8004 52.5615 14.9847 52.6759 15.1434 52.8252C15.2974 52.9699 15.4187 53.1472 15.5074 53.3572C15.5961 53.5625 15.6404 53.7935 15.6404 54.0502C15.6404 54.2882 15.5914 54.5122 15.4934 54.7222C15.3907 54.9322 15.2531 55.0932 15.0804 55.2052L15.0804 55.2192L17.5304 55.2192L17.5304 55.8492L12.2384 55.8492ZM12.7424 54.1272C12.7424 54.2952 12.7727 54.4469 12.8334 54.5822C12.8894 54.7175 12.9687 54.8319 13.0714 54.9252C13.1694 55.0185 13.2907 55.0909 13.4354 55.1422C13.5754 55.1935 13.7294 55.2192 13.8974 55.2192C14.0654 55.2192 14.2217 55.1935 14.3664 55.1422C14.5064 55.0909 14.6277 55.0185 14.7304 54.9252C14.8284 54.8319 14.9077 54.7175 14.9684 54.5822C15.0244 54.4469 15.0524 54.2952 15.0524 54.1272C15.0524 53.9592 15.0244 53.8075 14.9684 53.6722C14.9077 53.5369 14.8284 53.4225 14.7304 53.3292C14.6277 53.2359 14.5064 53.1635 14.3664 53.1122C14.2217 53.0609 14.0654 53.0352 13.8974 53.0352C13.7294 53.0352 13.5754 53.0609 13.4354 53.1122C13.2907 53.1635 13.1694 53.2359 13.0714 53.3292C12.9687 53.4225 12.8894 53.5369 12.8334 53.6722C12.7727 53.8075 12.7424 53.9592 12.7424 54.1272ZM14.2644 67.2584L14.2644 66.6284L17.6804 66.6284L16.2454 65.2004L16.2454 64.3254L17.7504 65.8724L19.5564 64.1924L19.5564 65.0884L17.8344 66.6284L19.5564 66.6284L19.5564 67.2584L14.2644 67.2584ZM18.1284 63.1525C18.2731 63.1525 18.4061 63.1222 18.5274 63.0615C18.6441 62.9962 18.7444 62.9122 18.8284 62.8095C18.9124 62.7068 18.9777 62.5878 19.0244 62.4525C19.0711 62.3172 19.0944 62.1772 19.0944 62.0325C19.0944 61.8365 19.0501 61.6662 18.9614 61.5215C18.8681 61.3768 18.7467 61.2438 18.5974 61.1225L18.9614 60.6465C19.4141 60.9965 19.6404 61.4865 19.6404 62.1165C19.6404 62.3778 19.5961 62.6158 19.5074 62.8305C19.4187 63.0405 19.2974 63.2202 19.1434 63.3695C18.9847 63.5142 18.8004 63.6262 18.5904 63.7055C18.3757 63.7848 18.1447 63.8245 17.8974 63.8245C17.6501 63.8245 17.4214 63.7825 17.2114 63.6985C16.9967 63.6098 16.8124 63.4908 16.6584 63.3415C16.4997 63.1875 16.3761 63.0055 16.2874 62.7955C16.1987 62.5855 16.1544 62.3568 16.1544 62.1095C16.1544 61.8155 16.2057 61.5682 16.3084 61.3675C16.4111 61.1622 16.5464 60.9942 16.7144 60.8635C16.8777 60.7328 17.0644 60.6395 17.2744 60.5835C17.4797 60.5228 17.6897 60.4925 17.9044 60.4925L18.1284 60.4925L18.1284 63.1525ZM17.6244 61.1645C17.4844 61.1692 17.3561 61.1925 17.2394 61.2345C17.1227 61.2718 17.0224 61.3302 16.9384 61.4095C16.8497 61.4888 16.7821 61.5892 16.7354 61.7105C16.6841 61.8272 16.6584 61.9648 16.6584 62.1235C16.6584 62.2775 16.6887 62.4198 16.7494 62.5505C16.8054 62.6765 16.8801 62.7838 16.9734 62.8725C17.0667 62.9612 17.1717 63.0312 17.2884 63.0825C17.4004 63.1292 17.5124 63.1525 17.6244 63.1525L17.6244 61.1645ZM16.2384 60.1378L16.2384 59.4098L18.8284 58.4228L18.8284 58.4088L16.2384 57.4708L16.2384 56.7918L20.2704 58.3668C20.4151 58.4228 20.5457 58.4812 20.6624 58.5418C20.7837 58.6025 20.8864 58.6748 20.9704 58.7588C21.0544 58.8428 21.1197 58.9455 21.1664 59.0668C21.2131 59.1835 21.2364 59.3282 21.2364 59.5008C21.2364 59.5942 21.2294 59.6898 21.2154 59.7878C21.2061 59.8812 21.1827 59.9722 21.1454 60.0608L20.5714 59.9838C20.6227 59.8578 20.6484 59.7318 20.6484 59.6058C20.6484 59.5078 20.6344 59.4262 20.6064 59.3608C20.5831 59.2908 20.5457 59.2325 20.4944 59.1858C20.4477 59.1345 20.3917 59.0925 20.3264 59.0598C20.2611 59.0272 20.1864 58.9945 20.1024 58.9618L19.5774 58.7588L16.2384 60.1378Z" fill="black" fill-opacity="0.1"/>
</g>
<defs>
<clipPath id="clip0">
<rect width="30.5" height="75" fill="white" transform="translate(0.243896)"/>
</clipPath>
</defs>
</svg>
