<svg width="51" height="50" viewBox="0 0 51 50" fill="none" xmlns="http://www.w3.org/2000/svg">
<g clip-path="url(#clip0)">
<path fill-rule="evenodd" clip-rule="evenodd" d="M0.5 7C0.5 5.89543 1.39543 5 2.5 5H48.5C49.6046 5 50.5 5.89543 50.5 7V16.5895C49.3571 16.8102 48.1887 16.9848 47 17.1196V13C47 11.6193 45.8807 10.5 44.5 10.5H36.5C35.1193 10.5 34 11.6193 34 13V17.3406C33.3339 17.3055 32.667 17.2655 32 17.2215V13C32 11.6193 30.8807 10.5 29.5 10.5H21.5C20.1193 10.5 19 11.6193 19 13V16.0913C18.3274 16.0312 17.6604 15.9734 17 15.9192V13C17 11.6193 15.8807 10.5 14.5 10.5H6.5C5.11929 10.5 4 11.6193 4 13V15.7173C2.75551 15.851 1.58415 16.0525 0.5 16.3383V7ZM20 16.1819C20.8748 16.2622 21.7581 16.3454 22.6477 16.4293L22.6485 16.4294L22.6486 16.4294L22.6486 16.4294L23.4218 16.5022C25.9163 16.7368 28.4558 16.9705 31 17.1527V13C31 12.1716 30.3284 11.5 29.5 11.5H21.5C20.6716 11.5 20 12.1716 20 13V16.1819ZM46 13V17.2232C42.4558 17.557 38.7459 17.5582 35 17.3895V13C35 12.1716 35.6716 11.5 36.5 11.5H44.5C45.3284 11.5 46 12.1716 46 13ZM5 15.6253C6.68208 15.4953 8.48365 15.4746 10.373 15.5259C12.1686 15.5747 14.053 15.6891 16 15.8394V13C16 12.1716 15.3284 11.5 14.5 11.5H6.5C5.67157 11.5 5 12.1716 5 13V15.6253ZM23.3282 17.4978C32.3076 18.3423 42.0508 19.1988 50.5 17.6075V43C50.5 44.1046 49.6046 45 48.5 45H2.5C1.39543 45 0.5 44.1046 0.5 43V17.3745C3.19609 16.6183 6.54527 16.4223 10.3458 16.5255C14.0909 16.6273 18.2325 17.0176 22.5666 17.4261L23.3282 17.4978Z" fill="white"/>
</g>
<defs>
<clipPath id="clip0">
<rect width="50" height="50" fill="white" transform="translate(0.5)"/>
</clipPath>
</defs>
</svg>
