<svg width="30" height="30" viewBox="0 0 30 30" fill="none" xmlns="http://www.w3.org/2000/svg">
<path fill-rule="evenodd" clip-rule="evenodd" d="M25 9.21607C25 9.28929 24.9771 9.35536 24.9332 9.41607C24.8874 9.475 24.8399 9.50536 24.7854 9.50536C24.3474 9.54821 23.9868 9.69107 23.7089 9.93571C23.4292 10.1786 23.1425 10.6446 22.8452 11.3304L18.3069 21.7125C18.277 21.8089 18.1944 21.8571 18.0572 21.8571C17.9499 21.8571 17.8672 21.8089 17.8074 21.7125L15.2621 16.3089L12.3351 21.7125C12.2753 21.8089 12.1926 21.8571 12.0853 21.8571C11.9551 21.8571 11.869 21.8089 11.8267 21.7125L7.36763 11.3304C7.08971 10.6857 6.79595 10.2357 6.48637 9.98036C6.17854 9.725 5.74758 9.56607 5.19701 9.50536C5.14952 9.50536 5.10378 9.48036 5.06332 9.42857C5.02111 9.37857 5 9.31964 5 9.25357C5 9.08393 5.04749 9 5.14248 9C5.54002 9 5.95515 9.01786 6.38962 9.05357C6.79244 9.09107 7.17238 9.10893 7.5277 9.10893C7.89006 9.10893 8.3175 9.09107 8.81003 9.05357C9.32542 9.01786 9.78276 9 10.1803 9C10.2753 9 10.3228 9.08393 10.3228 9.25357C10.3228 9.42143 10.2929 9.50536 10.2348 9.50536C9.83729 9.53571 9.52419 9.63929 9.29551 9.8125C9.06684 9.9875 8.95251 10.2161 8.95251 10.5C8.95251 10.6446 9 10.825 9.09499 11.0411L12.7801 19.4893L14.8716 15.4786L12.9226 11.3304C12.5726 10.5911 12.2841 10.1125 12.0589 9.89821C11.8338 9.68571 11.4925 9.55357 11.0352 9.50536C10.993 9.50536 10.9543 9.48036 10.9156 9.42857C10.8769 9.37857 10.8575 9.31964 10.8575 9.25357C10.8575 9.08393 10.898 9 10.9824 9C11.3799 9 11.7441 9.01786 12.0765 9.05357C12.3967 9.09107 12.7379 9.10893 13.1003 9.10893C13.4556 9.10893 13.832 9.09107 14.2296 9.05357C14.6394 9.01786 15.0422 9 15.4398 9C15.5347 9 15.5822 9.08393 15.5822 9.25357C15.5822 9.42143 15.5541 9.50536 15.4943 9.50536C14.6992 9.56071 14.3017 9.78929 14.3017 10.1929C14.3017 10.3732 14.3931 10.6536 14.5778 11.0321L15.8672 13.6893L17.1495 11.2589C17.3272 10.9161 17.4169 10.6268 17.4169 10.3911C17.4169 9.8375 17.0193 9.54286 16.2243 9.50536C16.1522 9.50536 16.117 9.42143 16.117 9.25357C16.117 9.19286 16.1346 9.13571 16.1697 9.08214C16.2067 9.02679 16.2419 9 16.277 9C16.562 9 16.9121 9.01786 17.3272 9.05357C17.7247 9.09107 18.0519 9.10893 18.3069 9.10893C18.4899 9.10893 18.7608 9.09286 19.1161 9.0625C19.5664 9.02143 19.9446 9 20.2471 9C20.3175 9 20.3527 9.07143 20.3527 9.21607C20.3527 9.40893 20.2876 9.50536 20.1574 9.50536C19.6948 9.55357 19.3219 9.68393 19.0405 9.89464C18.759 10.1054 18.4072 10.5839 17.9868 11.3304L16.277 14.5393L18.5919 19.3268L22.0097 11.2589C22.1275 10.9643 22.1873 10.6929 22.1873 10.4464C22.1873 9.85536 21.7898 9.54286 20.9947 9.50536C20.9226 9.50536 20.8874 9.42143 20.8874 9.25357C20.8874 9.08393 20.9402 9 21.0475 9C21.3377 9 21.6825 9.01786 22.08 9.05357C22.4477 9.09107 22.7573 9.10893 23.0053 9.10893C23.2674 9.10893 23.5699 9.09107 23.9129 9.05357C24.27 9.01786 24.5902 9 24.8751 9C24.9578 9 25 9.07143 25 9.21607Z" fill="black"/>
</svg>
