<svg width="472" height="300" viewBox="0 0 472 300" fill="none" xmlns="http://www.w3.org/2000/svg">
<g clip-path="url(#clip0)">
<rect x="1" y="1" width="470" height="298" rx="12" stroke="black" stroke-width="2"/>
<rect x="47" y="97" width="71" height="64" rx="11.6316" stroke="black" stroke-opacity="0.25" stroke-width="2"/>
<circle cx="440" cy="38" r="15" stroke="black" stroke-opacity="0.25" stroke-width="2"/>
<path d="M273.174 230.505C275.163 230.505 276.868 230.805 278.289 231.405C279.742 231.974 281.147 232.874 282.505 234.105L280.847 235.905C279.616 234.863 278.416 234.105 277.247 233.632C276.079 233.158 274.753 232.921 273.268 232.921C271.247 232.921 269.621 233.426 268.389 234.437C267.158 235.416 266.542 236.742 266.542 238.416C266.542 239.553 266.763 240.5 267.205 241.258C267.679 241.984 268.453 242.647 269.526 243.247C270.6 243.816 272.132 244.4 274.121 245C276.268 245.663 278.005 246.374 279.332 247.132C280.658 247.89 281.684 248.868 282.41 250.068C283.137 251.268 283.5 252.784 283.5 254.616C283.5 256.447 283.058 258.074 282.174 259.495C281.289 260.916 280.026 262.021 278.384 262.811C276.774 263.6 274.895 263.995 272.747 263.995C268.705 263.995 265.247 262.637 262.374 259.921L263.984 258.121C265.31 259.258 266.653 260.126 268.01 260.726C269.368 261.295 270.932 261.579 272.7 261.579C275.037 261.579 276.932 260.963 278.384 259.732C279.868 258.5 280.611 256.826 280.611 254.711C280.611 253.384 280.358 252.295 279.853 251.442C279.379 250.59 278.589 249.863 277.484 249.263C276.41 248.632 274.879 248 272.889 247.368C269.574 246.358 267.205 245.19 265.784 243.863C264.363 242.537 263.653 240.737 263.653 238.463C263.653 236.947 264.047 235.59 264.837 234.39C265.658 233.158 266.779 232.211 268.2 231.547C269.653 230.853 271.311 230.505 273.174 230.505Z" fill="black" fill-opacity="0.25"/>
<path d="M308.371 257.979C308.371 259.274 308.529 260.205 308.845 260.774C309.192 261.342 309.729 261.768 310.456 262.053L309.84 263.995C308.703 263.774 307.819 263.347 307.187 262.716C306.587 262.084 306.192 261.121 306.003 259.826C304.298 262.605 301.724 263.995 298.282 263.995C295.913 263.995 294.035 263.332 292.645 262.005C291.287 260.647 290.608 258.847 290.608 256.605C290.608 254.047 291.508 252.074 293.308 250.684C295.14 249.295 297.666 248.6 300.887 248.6H305.624V246.184C305.624 244.195 305.182 242.758 304.298 241.874C303.413 240.958 301.945 240.5 299.892 240.5C297.998 240.5 295.756 240.974 293.166 241.921L292.456 239.837C295.235 238.732 297.84 238.179 300.271 238.179C305.671 238.179 308.371 240.8 308.371 246.042V257.979ZM298.756 261.768C301.724 261.768 304.013 260.316 305.624 257.411V250.59H301.313C298.787 250.59 296.861 251.079 295.535 252.058C294.208 253.037 293.545 254.505 293.545 256.463C293.545 258.168 294.003 259.479 294.919 260.395C295.835 261.311 297.113 261.768 298.756 261.768Z" fill="black" fill-opacity="0.25"/>
<path d="M331.541 262.432C329.962 263.474 328.225 263.995 326.33 263.995C324.436 263.995 322.951 263.442 321.878 262.337C320.804 261.2 320.267 259.574 320.267 257.458V240.926H316.099V238.7H320.267V232.779L323.014 232.447V238.7H329.409L329.078 240.926H323.014V257.316C323.014 258.768 323.314 259.858 323.914 260.584C324.514 261.279 325.43 261.626 326.662 261.626C327.925 261.626 329.188 261.263 330.451 260.537L331.541 262.432Z" fill="black" fill-opacity="0.25"/>
<path d="M346.277 238.179C349.561 238.179 352.119 239.316 353.951 241.59C355.814 243.832 356.746 246.974 356.746 251.016C356.746 255.026 355.798 258.2 353.904 260.537C352.04 262.842 349.482 263.995 346.23 263.995C342.946 263.995 340.372 262.858 338.509 260.584C336.677 258.279 335.761 255.121 335.761 251.111C335.761 248.49 336.188 246.2 337.04 244.242C337.893 242.284 339.109 240.784 340.688 239.742C342.267 238.7 344.13 238.179 346.277 238.179ZM346.277 240.5C343.877 240.5 342.014 241.4 340.688 243.2C339.361 245 338.698 247.637 338.698 251.111C338.698 254.553 339.346 257.174 340.64 258.974C341.967 260.774 343.83 261.674 346.23 261.674C348.63 261.674 350.493 260.774 351.819 258.974C353.177 257.174 353.856 254.521 353.856 251.016C353.856 247.574 353.193 244.968 351.867 243.2C350.572 241.4 348.709 240.5 346.277 240.5Z" fill="black" fill-opacity="0.25"/>
<path d="M375.091 238.416C376.417 238.416 377.586 238.605 378.596 238.984C379.607 239.363 380.57 239.963 381.486 240.784L380.87 241.495C380.049 240.768 379.18 240.232 378.265 239.884C377.349 239.537 376.307 239.363 375.138 239.363C372.454 239.363 370.291 240.405 368.649 242.49C367.038 244.574 366.233 247.511 366.233 251.3C366.233 255.026 367.038 257.9 368.649 259.921C370.291 261.942 372.438 262.953 375.091 262.953C377.365 262.953 379.37 262.195 381.107 260.679L381.722 261.39C379.796 263.095 377.601 263.947 375.138 263.947C373.149 263.947 371.396 263.458 369.88 262.479C368.396 261.468 367.228 260.016 366.375 258.121C365.554 256.195 365.144 253.921 365.144 251.3C365.144 248.679 365.554 246.405 366.375 244.479C367.196 242.521 368.349 241.021 369.833 239.979C371.349 238.937 373.101 238.416 375.091 238.416Z" fill="black" fill-opacity="0.25"/>
<path d="M401.185 238.416C403.364 238.416 405.006 239.079 406.111 240.405C407.216 241.7 407.769 243.563 407.769 245.995V263.474H406.727V246.09C406.727 241.605 404.879 239.363 401.185 239.363C399.29 239.363 397.632 239.868 396.211 240.879C394.79 241.89 393.448 243.358 392.185 245.284V263.474H391.142V228.753L392.185 228.611V243.863C394.616 240.232 397.616 238.416 401.185 238.416Z" fill="black" fill-opacity="0.25"/>
<path d="M421.603 238.89V263.474H420.561V238.89H421.603ZM421.082 229.179C421.398 229.179 421.635 229.274 421.792 229.463C421.982 229.653 422.077 229.874 422.077 230.126C422.077 230.379 421.982 230.6 421.792 230.79C421.635 230.947 421.398 231.026 421.082 231.026C420.798 231.026 420.561 230.947 420.371 230.79C420.213 230.6 420.135 230.379 420.135 230.126C420.135 229.874 420.213 229.653 420.371 229.463C420.561 229.274 420.798 229.179 421.082 229.179Z" fill="black" fill-opacity="0.25"/>
<path d="M443.668 238.416C446.478 238.416 448.626 239.505 450.11 241.684C451.594 243.832 452.336 246.926 452.336 250.968C452.336 255.042 451.562 258.232 450.015 260.537C448.499 262.811 446.305 263.947 443.431 263.947C441.757 263.947 440.273 263.553 438.978 262.763C437.684 261.974 436.594 260.947 435.71 259.684V272.568L434.668 272.758V238.89H435.568L435.663 242.916C437.747 239.916 440.415 238.416 443.668 238.416ZM443.384 262.953C445.941 262.953 447.899 261.911 449.257 259.826C450.615 257.742 451.294 254.79 451.294 250.968C451.294 247.179 450.647 244.305 449.352 242.347C448.057 240.358 446.163 239.363 443.668 239.363C441.963 239.363 440.494 239.758 439.262 240.547C438.031 241.337 436.847 242.505 435.71 244.053V258.453C437.794 261.453 440.352 262.953 443.384 262.953Z" fill="black" fill-opacity="0.25"/>
</g>
<defs>
<clipPath id="clip0">
<rect width="472" height="300" fill="white"/>
</clipPath>
</defs>
</svg>
