<svg width="42" height="77" viewBox="0 0 42 77" fill="none" xmlns="http://www.w3.org/2000/svg">
<path d="M20.7407 1C9.34264 1 1.74396 1.75503 1.74396 7.7953V50.5805C1.74395 56.1174 9.08935 76 15.4216 76H26.5663C33.5294 76 40.244 57.3758 40.244 50.5805V7.7953C40.244 1.75503 33.1518 1 20.7407 1Z" stroke="black" stroke-width="2"/>
<rect x="24.244" y="41" width="11.5" height="5" rx="1" stroke="black" stroke-opacity="0.25" stroke-width="2"/>
<rect x="6.24396" y="41" width="11.5" height="5" rx="1" stroke="black" stroke-opacity="0.25" stroke-width="2"/>
<rect x="6.24396" y="20" width="29.5" height="16" rx="1" stroke="black" stroke-opacity="0.25" stroke-width="2"/>
<path d="M14.501 13.6001V11.0595H13.5727V10.1484H16.467V11.0595H15.5479V13.6001H14.501Z" fill="black" fill-opacity="0.1"/>
<path d="M18.812 13.6001L18.3357 12.5147H17.9567V13.6001H16.9099V10.1484H18.7523C19.561 10.1484 19.9947 10.6845 19.9947 11.3311C19.9947 11.927 19.6501 12.2421 19.3735 12.3779L19.9988 13.5991H18.812V13.6001ZM18.9357 11.3311C18.9357 11.1436 18.7695 11.0625 18.5952 11.0625H17.9567V11.6077H18.5952C18.7695 11.6037 18.9357 11.5226 18.9357 11.3311Z" fill="black" fill-opacity="0.1"/>
<path d="M20.544 13.6001V10.1484H23.1616V11.0595H21.5868V11.4H23.1231V12.3111H21.5868V12.6901H23.1616V13.6001H20.544Z" fill="black" fill-opacity="0.1"/>
<path d="M23.7058 13.6041V12.7742L25.0212 11.0635H23.7058V10.1525H26.3995V10.9743L25.08 12.6941H26.438V13.6051L23.7058 13.6041Z" fill="black" fill-opacity="0.1"/>
<path d="M26.6933 11.8803C26.6933 10.8203 27.5152 10.0927 28.5833 10.0927C29.6474 10.0927 30.4733 10.8162 30.4733 11.8803C30.4733 12.9403 29.6515 13.6639 28.5833 13.6639C27.5152 13.6639 26.6933 12.9403 26.6933 11.8803ZM29.4093 11.8803C29.4093 11.3989 29.0819 11.0159 28.5793 11.0159C28.0766 11.0159 27.7493 11.3989 27.7493 11.8803C27.7493 12.3617 28.0766 12.7447 28.5793 12.7447C29.086 12.7447 29.4093 12.3617 29.4093 11.8803Z" fill="black" fill-opacity="0.1"/>
<path d="M32.8133 13.6041L32.337 12.5188H31.958V13.6041H30.9111V10.1525H32.7535C33.5622 10.1525 33.9959 10.6886 33.9959 11.3351C33.9959 11.931 33.6514 12.2462 33.3747 12.382L34 13.6031H32.8133V13.6041ZM32.941 11.3311C32.941 11.1436 32.7748 11.0625 32.6005 11.0625H31.962V11.6077H32.6005C32.7758 11.6037 32.941 11.5226 32.941 11.3311Z" fill="black" fill-opacity="0.1"/>
<path d="M9.34674 7.85168C8.41276 7.85168 7.6569 8.60754 7.6569 9.54153V10.1749C7.32892 10.2342 7 10.3134 7 10.4161V13.7214C7 13.7214 7 13.8128 7.10273 13.8561C7.475 14.0069 8.9396 14.5253 9.27606 14.644C9.31941 14.6601 9.33166 14.6601 9.34297 14.6601C9.359 14.6601 9.36653 14.6601 9.40989 14.644C9.74635 14.5253 11.2147 14.0069 11.587 13.8561C11.6822 13.8166 11.6859 13.7251 11.6859 13.7251V10.4161C11.6859 10.3134 11.3617 10.2305 11.0328 10.1749V9.54153C11.0375 8.60754 10.277 7.85168 9.34674 7.85168ZM9.34674 8.65938C9.89714 8.65938 10.2298 8.99207 10.2298 9.54247V10.0929C9.61252 10.0495 9.08568 10.0495 8.46459 10.0929V9.54247C8.46459 8.99113 8.79728 8.65938 9.34674 8.65938ZM9.34297 10.9034C10.1111 10.9034 10.7557 10.9628 10.7557 11.0693V13.1314C10.7557 13.1634 10.752 13.1672 10.7237 13.1785C10.6964 13.1908 9.41366 13.6535 9.41366 13.6535C9.41366 13.6535 9.36182 13.6695 9.34674 13.6695C9.33072 13.6695 9.27983 13.6497 9.27983 13.6497C9.27983 13.6497 7.99713 13.187 7.9698 13.1747C7.94247 13.1625 7.93775 13.1587 7.93775 13.1276V11.0655C7.93022 10.959 8.57486 10.9034 9.34297 10.9034Z" fill="black" fill-opacity="0.1"/>
</svg>
