<svg width="60" height="114" viewBox="0 0 60 114" fill="none" xmlns="http://www.w3.org/2000/svg">
<path d="M29.619 1C12.598 1 1.25061 2.12752 1.25061 11.1476V75.0402C1.25059 83.3087 12.2197 113 21.6759 113H38.3187C48.7168 113 58.7439 85.1879 58.7439 75.0402V11.1476C58.7439 2.12752 48.1531 1 29.619 1Z" stroke="black" stroke-width="2"/>
<rect x="34.3573" y="60.24" width="18.16" height="8.45333" rx="1.98667" stroke="black" stroke-opacity="0.25" stroke-width="2"/>
<rect x="7.47726" y="60.24" width="18.16" height="8.45333" rx="1.98667" stroke="black" stroke-opacity="0.25" stroke-width="2"/>
<rect x="7.47726" y="28.88" width="45.04" height="24.88" rx="1.98667" stroke="black" stroke-opacity="0.25" stroke-width="2"/>
<path d="M20.3904 19.8156V15.9577H18.9808V14.5742H23.3758V15.9577H21.9801V19.8156H20.3904Z" fill="black" fill-opacity="0.1"/>
<path d="M26.9368 19.8156L26.2135 18.1675H25.638V19.8156H24.0483V14.5742H26.846C28.074 14.5742 28.7327 15.3883 28.7327 16.3701C28.7327 17.275 28.2095 17.7535 27.7894 17.9598L28.7388 19.8141H26.9368V19.8156ZM27.1246 16.3701C27.1246 16.0854 26.8722 15.9623 26.6075 15.9623H25.638V16.7902H26.6075C26.8722 16.7841 27.1246 16.6609 27.1246 16.3701Z" fill="black" fill-opacity="0.1"/>
<path d="M29.5668 19.8156V14.5742H33.5417V15.9577H31.1503V16.4747H33.4832V17.8582H31.1503V18.4337H33.5417V19.8156H29.5668Z" fill="black" fill-opacity="0.1"/>
<path d="M34.368 19.8217V18.5614L36.3655 15.9638H34.368V14.5803H38.4584V15.8284L36.4548 18.4398H38.5169V19.8233L34.368 19.8217Z" fill="black" fill-opacity="0.1"/>
<path d="M38.9047 17.2042C38.9047 15.5945 40.1527 14.4896 41.7747 14.4896C43.3905 14.4896 44.6447 15.5884 44.6447 17.2042C44.6447 18.8139 43.3967 19.9126 41.7747 19.9126C40.1527 19.9126 38.9047 18.8139 38.9047 17.2042ZM43.0289 17.2042C43.0289 16.4732 42.5318 15.8915 41.7685 15.8915C41.0052 15.8915 40.5082 16.4732 40.5082 17.2042C40.5082 17.9352 41.0052 18.5169 41.7685 18.5169C42.538 18.5169 43.0289 17.9352 43.0289 17.2042Z" fill="black" fill-opacity="0.1"/>
<path d="M48.198 19.8217L47.4747 18.1736H46.8991V19.8217H45.3095V14.5803H48.1072C49.3352 14.5803 49.9938 15.3944 49.9938 16.3762C49.9938 17.2811 49.4706 17.7596 49.0505 17.9659L50 19.8202H48.198V19.8217ZM48.3919 16.37C48.3919 16.0853 48.1395 15.9622 47.8748 15.9622H46.9053V16.7902H47.8748C48.141 16.784 48.3919 16.6609 48.3919 16.37Z" fill="black" fill-opacity="0.1"/>
<path d="M12.5636 11.0865C11.1453 11.0865 9.99751 12.2343 9.99751 13.6526V14.6143C9.49947 14.7045 9 14.8247 9 14.9807V19.9998C9 19.9998 9 20.1386 9.156 20.2044C9.7213 20.4334 11.9453 21.2206 12.4562 21.4009C12.5221 21.4252 12.5407 21.4252 12.5578 21.4252C12.5822 21.4252 12.5936 21.4252 12.6595 21.4009C13.1704 21.2206 15.4001 20.4334 15.9654 20.2044C16.11 20.1443 16.1157 20.0055 16.1157 20.0055V14.9807C16.1157 14.8247 15.6234 14.6988 15.1239 14.6143V13.6526C15.1311 12.2343 13.9761 11.0865 12.5636 11.0865ZM12.5636 12.313C13.3994 12.313 13.9046 12.8182 13.9046 13.654V14.4898C12.9672 14.424 12.1671 14.424 11.224 14.4898V13.654C11.224 12.8168 11.7292 12.313 12.5636 12.313ZM12.5578 15.7206C13.7242 15.7206 14.7031 15.8108 14.7031 15.9725V19.1039C14.7031 19.1525 14.6974 19.1583 14.6545 19.1754C14.613 19.194 12.6652 19.8967 12.6652 19.8967C12.6652 19.8967 12.5865 19.9211 12.5636 19.9211C12.5392 19.9211 12.462 19.891 12.462 19.891C12.462 19.891 10.5142 19.1883 10.4727 19.1697C10.4312 19.1511 10.424 19.1454 10.424 19.0981V15.9668C10.4125 15.8051 11.3915 15.7206 12.5578 15.7206Z" fill="black" fill-opacity="0.1"/>
</svg>
