<svg width="121" height="100" viewBox="0 0 121 100" fill="none" xmlns="http://www.w3.org/2000/svg">
<g clip-path="url(#clip0)">
<path fill-rule="evenodd" clip-rule="evenodd" d="M7.81785 72.748C8.02852 73.5508 8.74732 74.2 9.69364 74.2H91.5266C94.7143 74.2 97.6682 72.5275 99.3083 69.794L112.549 47.7255C112.706 47.4644 112.783 47.1869 112.792 46.9145H116.429C116.42 47.812 116.179 48.7311 115.662 49.5932L102.421 71.6617C100.125 75.4885 95.9894 77.83 91.5266 77.83H9.69364C6.62378 77.83 4.38673 75.4537 4.14143 72.748H7.81785Z" fill="black"/>
<rect x="4.15851" y="54.114" width="3.63" height="18.997" fill="black"/>
<rect x="112.792" y="29.067" width="3.63" height="17.908" fill="black"/>
<mask id="mask0" mask-type="alpha" maskUnits="userSpaceOnUse" x="4" y="23" width="113" height="38">
<path d="M18.0125 30.0358C20.2649 26.2819 24.3216 23.985 28.6994 23.985H111.097C115.235 23.985 117.791 28.4996 115.662 32.0482L102.421 54.1167C100.125 57.9435 95.9893 60.285 91.5266 60.285H9.69363C5.36721 60.285 2.69489 55.5652 4.92082 51.8553L18.0125 30.0358Z" fill="#C4C4C4"/>
</mask>
<g mask="url(#mask0)">
<line x1="11.1819" y1="46.9148" x2="36.3326" y2="59.1091" stroke="black" stroke-width="3.63"/>
<line x1="14.6908" y1="34.2099" x2="66.6254" y2="59.3903" stroke="black" stroke-width="3.63"/>
<line x1="26.4278" y1="25.2559" x2="94.694" y2="58.3546" stroke="black" stroke-width="3.63"/>
<line x1="57.4038" y1="25.2559" x2="103.568" y2="47.6385" stroke="black" stroke-width="3.63"/>
<line x1="89.5898" y1="25.2559" x2="111.256" y2="35.7609" stroke="black" stroke-width="3.63"/>
<line x1="107.125" y1="25.6229" x2="34.7887" y2="60.1544" stroke="black" stroke-width="3.63"/>
<line x1="109.281" y1="39.2959" x2="65.3845" y2="60.2511" stroke="black" stroke-width="3.63"/>
<line x1="78.9057" y1="25.1389" x2="8.14674" y2="58.9174" stroke="black" stroke-width="3.63"/>
<line x1="48.7769" y1="25.1389" x2="10.8859" y2="43.2271" stroke="black" stroke-width="3.63"/>
</g>
<path d="M19.5689 30.9696C21.4932 27.7624 24.9592 25.8 28.6994 25.8H111.097C113.824 25.8 115.509 28.7755 114.106 31.1144L100.865 53.1829C98.8966 56.463 95.3518 58.47 91.5266 58.47H9.69363C6.77799 58.47 4.97709 55.2892 6.47717 52.7891L19.5689 30.9696Z" stroke="black" stroke-width="3.63"/>
</g>
<defs>
<clipPath id="clip0">
<rect width="120.032" height="100" fill="white" transform="translate(0.484001)"/>
</clipPath>
</defs>
</svg>
