<svg width="30" height="30" viewBox="0 0 30 30" fill="none" xmlns="http://www.w3.org/2000/svg">
<path d="M4 20V24.5C4 25.0523 4.44772 25.5 5 25.5H24C24.5523 25.5 25 25.0523 25 24.5V20" stroke="black" stroke-width="2" stroke-linecap="round" stroke-linejoin="round"/>
<path d="M14.2929 3.29289C14.6834 2.90237 15.3166 2.90237 15.7071 3.29289L22.0711 9.65685C22.4616 10.0474 22.4616 10.6805 22.0711 11.0711C21.6805 11.4616 21.0474 11.4616 20.6569 11.0711L15 5.41421L9.34315 11.0711C8.95262 11.4616 8.31946 11.4616 7.92893 11.0711C7.53841 10.6805 7.53841 10.0474 7.92893 9.65685L14.2929 3.29289ZM14 18L14 4L16 4L16 18L14 18Z" fill="black"/>
</svg>
