<svg width="54" height="150" viewBox="0 0 54 150" fill="none" xmlns="http://www.w3.org/2000/svg">
<g clip-path="url(#clip0)">
<path d="M1.75061 8.25C1.75061 6.12903 3.09543 4.34482 5.53533 3.03773C7.97683 1.72978 11.3657 1 15.0006 1H39.0006C42.6355 1 46.0244 1.72978 48.4659 3.03773C50.9058 4.34482 52.2506 6.12903 52.2506 8.25V139.25C52.2506 142.366 50.7111 144.766 48.2807 146.424C45.8245 148.1 42.4699 149 39.0006 149H15.0006C11.5313 149 8.17673 148.1 5.7205 146.424C3.29013 144.766 1.75061 142.366 1.75061 139.25V8.25Z" stroke="black" stroke-width="2"/>
<mask id="path-2-inside-1" fill="white">
<rect x="5.50061" y="100" width="12" height="7.5" rx="1.5"/>
</mask>
<rect x="5.50061" y="100" width="12" height="7.5" rx="1.5" stroke="black" stroke-opacity="0.25" stroke-width="4" mask="url(#path-2-inside-1)"/>
<mask id="path-3-inside-2" fill="white">
<rect x="21.0006" y="100" width="12" height="7.5" rx="1.5"/>
</mask>
<rect x="21.0006" y="100" width="12" height="7.5" rx="1.5" stroke="black" stroke-opacity="0.25" stroke-width="4" mask="url(#path-3-inside-2)"/>
<mask id="path-4-inside-3" fill="white">
<rect x="36.5006" y="100" width="12" height="7.5" rx="1.5"/>
</mask>
<rect x="36.5006" y="100" width="12" height="7.5" rx="1.5" stroke="black" stroke-opacity="0.25" stroke-width="4" mask="url(#path-4-inside-3)"/>
<mask id="path-5-inside-4" fill="white">
<rect x="5.50061" y="110" width="12" height="7.5" rx="1.5"/>
</mask>
<rect x="5.50061" y="110" width="12" height="7.5" rx="1.5" stroke="black" stroke-opacity="0.25" stroke-width="4" mask="url(#path-5-inside-4)"/>
<mask id="path-6-inside-5" fill="white">
<rect x="21.0006" y="110" width="12" height="7.5" rx="1.5"/>
</mask>
<rect x="21.0006" y="110" width="12" height="7.5" rx="1.5" stroke="black" stroke-opacity="0.25" stroke-width="4" mask="url(#path-6-inside-5)"/>
<mask id="path-7-inside-6" fill="white">
<rect x="36.5006" y="110" width="12" height="7.5" rx="1.5"/>
</mask>
<rect x="36.5006" y="110" width="12" height="7.5" rx="1.5" stroke="black" stroke-opacity="0.25" stroke-width="4" mask="url(#path-7-inside-6)"/>
<mask id="path-8-inside-7" fill="white">
<rect x="5.50061" y="120" width="12" height="7.5" rx="1.5"/>
</mask>
<rect x="5.50061" y="120" width="12" height="7.5" rx="1.5" stroke="black" stroke-opacity="0.25" stroke-width="4" mask="url(#path-8-inside-7)"/>
<mask id="path-9-inside-8" fill="white">
<rect x="21.0006" y="120" width="12" height="7.5" rx="1.5"/>
</mask>
<rect x="21.0006" y="120" width="12" height="7.5" rx="1.5" stroke="black" stroke-opacity="0.25" stroke-width="4" mask="url(#path-9-inside-8)"/>
<mask id="path-10-inside-9" fill="white">
<rect x="36.5006" y="120" width="12" height="7.5" rx="1.5"/>
</mask>
<rect x="36.5006" y="120" width="12" height="7.5" rx="1.5" stroke="black" stroke-opacity="0.25" stroke-width="4" mask="url(#path-10-inside-9)"/>
<mask id="path-11-inside-10" fill="white">
<rect x="5.50061" y="130" width="12" height="7.5" rx="1.5"/>
</mask>
<rect x="5.50061" y="130" width="12" height="7.5" rx="1.5" stroke="black" stroke-opacity="0.25" stroke-width="4" mask="url(#path-11-inside-10)"/>
<mask id="path-12-inside-11" fill="white">
<rect x="21.0006" y="130" width="12" height="7.5" rx="1.5"/>
</mask>
<rect x="21.0006" y="130" width="12" height="7.5" rx="1.5" stroke="black" stroke-opacity="0.25" stroke-width="4" mask="url(#path-12-inside-11)"/>
<mask id="path-13-inside-12" fill="white">
<rect x="36.5006" y="130" width="12" height="7.5" rx="1.5"/>
</mask>
<rect x="36.5006" y="130" width="12" height="7.5" rx="1.5" stroke="black" stroke-opacity="0.25" stroke-width="4" mask="url(#path-13-inside-12)"/>
<rect x="42.2506" y="76" width="5.5" height="10" rx="2" stroke="black" stroke-opacity="0.25" stroke-width="2"/>
<rect x="17.2506" y="70.5" width="20" height="20.5" rx="7" stroke="black" stroke-opacity="0.25" stroke-width="2"/>
<rect x="6.25061" y="76" width="5.5" height="10" rx="2" stroke="black" stroke-opacity="0.25" stroke-width="2"/>
<rect x="8.25061" y="11.5" width="37.5" height="50" rx="1.5" stroke="black" stroke-opacity="0.25" stroke-width="2"/>
<line x1="24.7506" y1="6.5" x2="29.2506" y2="6.5" stroke="black" stroke-opacity="0.25" stroke-width="2" stroke-linecap="round" stroke-linejoin="round"/>
</g>
<defs>
<clipPath id="clip0">
<rect width="52.5" height="150" fill="white" transform="translate(0.75061)"/>
</clipPath>
</defs>
</svg>
