<svg width="30" height="30" viewBox="0 0 30 30" fill="none" xmlns="http://www.w3.org/2000/svg">
<path d="M4 20V24.5C4 25.0523 4.44772 25.5 5 25.5H24C24.5523 25.5 25 25.0523 25 24.5V20" stroke="black" stroke-width="2" stroke-linecap="round" stroke-linejoin="round"/>
<path d="M14.2929 18.7071C14.6834 19.0976 15.3166 19.0976 15.7071 18.7071L22.0711 12.3431C22.4616 11.9526 22.4616 11.3195 22.0711 10.9289C21.6805 10.5384 21.0474 10.5384 20.6569 10.9289L15 16.5858L9.34315 10.9289C8.95262 10.5384 8.31946 10.5384 7.92893 10.9289C7.53841 11.3195 7.53841 11.9526 7.92893 12.3431L14.2929 18.7071ZM14 4L14 18L16 18L16 4L14 4Z" fill="black"/>
</svg>
