<svg width="80" height="152" viewBox="0 0 80 152" fill="none" xmlns="http://www.w3.org/2000/svg">
<path d="M39.244 1C16.448 1 1.25063 2.51007 1.25063 14.5906V100.161C1.2506 111.235 15.9414 151 28.6059 151H50.8954C64.8215 151 78.2506 113.752 78.2506 100.161V14.5906C78.2506 2.51007 64.0664 1 39.244 1Z" stroke="black" stroke-width="2"/>
<rect x="45.2506" y="80" width="25" height="12" rx="3" stroke="black" stroke-opacity="0.25" stroke-width="2"/>
<rect x="9.25063" y="80" width="25" height="12" rx="3" stroke="black" stroke-opacity="0.25" stroke-width="2"/>
<rect x="9.25063" y="38" width="61" height="34" rx="3" stroke="black" stroke-opacity="0.25" stroke-width="2"/>
<path d="M27.7241 24.8575V19.8703H25.902V18.082H31.5834V19.8703H29.7791V24.8575H27.7241Z" fill="black" fill-opacity="0.1"/>
<path d="M36.1866 24.8575L35.2516 22.727H34.5076V24.8575H32.4527V18.082H36.0692C37.6567 18.082 38.5081 19.1343 38.5081 20.4035C38.5081 21.5732 37.8317 22.1918 37.2887 22.4584L38.516 24.8555H36.1866V24.8575ZM36.4293 20.4035C36.4293 20.0354 36.103 19.8763 35.7609 19.8763H34.5076V20.9465H35.7609C36.103 20.9386 36.4293 20.7794 36.4293 20.4035Z" fill="black" fill-opacity="0.1"/>
<path d="M39.5863 24.8575V18.082H44.7246V19.8703H41.6333V20.5387H44.649V22.3271H41.6333V23.0711H44.7246V24.8575H39.5863Z" fill="black" fill-opacity="0.1"/>
<path d="M45.7928 24.8655V23.2362L48.3749 19.8783H45.7928V18.09H51.0804V19.7033L48.4903 23.0791H51.156V24.8675L45.7928 24.8655Z" fill="black" fill-opacity="0.1"/>
<path d="M51.6573 21.4817C51.6573 19.4009 53.2706 17.9726 55.3673 17.9726C57.456 17.9726 59.0773 19.3929 59.0773 21.4817C59.0773 23.5625 57.464 24.9828 55.3673 24.9828C53.2706 24.9828 51.6573 23.5625 51.6573 21.4817ZM56.9885 21.4817C56.9885 20.5368 56.346 19.7848 55.3593 19.7848C54.3726 19.7848 53.7301 20.5368 53.7301 21.4817C53.7301 22.4266 54.3726 23.1786 55.3593 23.1786C56.354 23.1786 56.9885 22.4266 56.9885 21.4817Z" fill="black" fill-opacity="0.1"/>
<path d="M63.6705 24.8655L62.7356 22.7349H61.9916V24.8655H59.9366V18.09H63.5532C65.1406 18.09 65.992 19.1423 65.992 20.4115C65.992 21.5812 65.3157 22.1998 64.7726 22.4664L66 24.8635H63.6705V24.8655ZM63.9212 20.4035C63.9212 20.0355 63.5949 19.8763 63.2528 19.8763H61.9995V20.9466H63.2528C63.5969 20.9386 63.9212 20.7795 63.9212 20.4035Z" fill="black" fill-opacity="0.1"/>
<path d="M17.6066 13.5735C15.7732 13.5735 14.2895 15.0572 14.2895 16.8906V18.1338C13.6456 18.2504 13 18.4058 13 18.6074V25.0955C13 25.0955 13 25.2749 13.2016 25.36C13.9324 25.656 16.8073 26.6736 17.4678 26.9067C17.5529 26.9381 17.577 26.9381 17.5992 26.9381C17.6306 26.9381 17.6454 26.9381 17.7305 26.9067C18.391 26.6736 21.2733 25.656 22.0041 25.36C22.1909 25.2823 22.1983 25.1029 22.1983 25.1029V18.6074C22.1983 18.4058 21.5619 18.243 20.9163 18.1338V16.8906C20.9255 15.0572 19.4325 13.5735 17.6066 13.5735ZM17.6066 15.159C18.687 15.159 19.34 15.812 19.34 16.8924V17.9729C18.1283 17.8878 17.0941 17.8878 15.8749 17.9729V16.8924C15.8749 15.8102 16.528 15.159 17.6066 15.159ZM17.5992 19.5639C19.1069 19.5639 20.3724 19.6804 20.3724 19.8895V23.9374C20.3724 24.0003 20.365 24.0077 20.3095 24.0299C20.2558 24.0539 17.7379 24.9623 17.7379 24.9623C17.7379 24.9623 17.6362 24.9937 17.6066 24.9937C17.5751 24.9937 17.4752 24.9549 17.4752 24.9549C17.4752 24.9549 14.9573 24.0465 14.9037 24.0225C14.85 23.9984 14.8408 23.991 14.8408 23.93V19.8821C14.826 19.673 16.0914 19.5639 17.5992 19.5639Z" fill="black" fill-opacity="0.1"/>
</svg>
