<svg width="40" height="40" viewBox="0 0 40 40" fill="none" xmlns="http://www.w3.org/2000/svg">
<g filter="url(#filter0_d)">
<path fill-rule="evenodd" clip-rule="evenodd" d="M14 10C14 9.44772 14.4477 9 15 9H25C25.5523 9 26 9.44772 26 10V15.0929C25.2071 15.24 24.3659 15.2928 23.5 15.2881V13C23.5 12.1716 22.8284 11.5 22 11.5H18C17.1716 11.5 16.5 12.1716 16.5 13V14.7324C16.3841 14.7267 16.2694 14.7221 16.156 14.7186C15.3909 14.6951 14.6576 14.7219 14 14.8509V10ZM17.5 14.8007C18.0877 14.8505 18.6955 14.9153 19.3093 14.9809L19.3093 14.9809L19.5113 15.0024C20.5051 15.1083 21.5124 15.2113 22.5 15.2597V13C22.5 12.7239 22.2761 12.5 22 12.5H18C17.7239 12.5 17.5 12.7239 17.5 13V14.8007ZM19.4054 15.9968C21.5275 16.2228 23.886 16.4621 26 16.1082V30C26 30.5523 25.5523 31 25 31H15C14.4477 31 14 30.5523 14 30V15.8741C14.582 15.7332 15.2956 15.6926 16.1252 15.7181C17.0647 15.747 18.1066 15.8582 19.2166 15.9767L19.4054 15.9968Z" fill="white"/>
</g>
<defs>
<filter id="filter0_d" x="-5" y="0" width="50" height="50" filterUnits="userSpaceOnUse" color-interpolation-filters="sRGB">
<feFlood flood-opacity="0" result="BackgroundImageFix"/>
<feColorMatrix in="SourceAlpha" type="matrix" values="0 0 0 0 0 0 0 0 0 0 0 0 0 0 0 0 0 0 127 0"/>
<feOffset dy="5"/>
<feGaussianBlur stdDeviation="5"/>
<feColorMatrix type="matrix" values="0 0 0 0 0 0 0 0 0 0 0 0 0 0 0 0 0 0 0.25 0"/>
<feBlend mode="normal" in2="BackgroundImageFix" result="effect1_dropShadow"/>
<feBlend mode="normal" in="SourceGraphic" in2="effect1_dropShadow" result="shape"/>
</filter>
</defs>
</svg>
