<svg width="157" height="302" viewBox="0 0 157 302" fill="none" xmlns="http://www.w3.org/2000/svg">
<path d="M77.2374 1C31.6453 1 1.25061 4.02013 1.25061 28.1812V199.322C1.25057 221.47 30.6322 301 55.9611 301H100.54C128.392 301 155.251 226.503 155.251 199.322V28.1812C155.251 4.02013 126.882 1 77.2374 1Z" stroke="black" stroke-width="2"/>
<rect x="88.2506" y="158" width="52" height="26" rx="7" stroke="black" stroke-opacity="0.25" stroke-width="2"/>
<rect x="16.2506" y="158" width="52" height="26" rx="7" stroke="black" stroke-opacity="0.25" stroke-width="2"/>
<rect x="16.2506" y="74" width="124" height="70" rx="7" stroke="black" stroke-opacity="0.25" stroke-width="2"/>
<path d="M52.9486 50.2406V39.4195H48.9948V35.5391H61.3224V39.4195H57.4074V50.2406H52.9486Z" fill="black" fill-opacity="0.1"/>
<path d="M71.3105 50.2406L69.2818 45.6178H67.6675V50.2406H63.2087V35.5391H71.0559C74.5003 35.5391 76.3477 37.8224 76.3477 40.5763C76.3477 43.1143 74.8802 44.4567 73.7018 45.0351L76.365 50.2363H71.3105V50.2406ZM71.8371 40.5763C71.8371 39.7777 71.1292 39.4324 70.3868 39.4324H67.6675V41.7546H70.3868C71.1292 41.7374 71.8371 41.3921 71.8371 40.5763Z" fill="black" fill-opacity="0.1"/>
<path d="M78.6872 50.2406V35.5391H89.8364V39.4195H83.1288V40.8698H89.6724V44.7502H83.1288V46.3645H89.8364V50.2406H78.6872Z" fill="black" fill-opacity="0.1"/>
<path d="M92.1543 50.2579V46.7228L97.7569 39.4368H92.1543V35.5563H103.627V39.0569L98.0073 46.3818H103.791V50.2622L92.1543 50.2579Z" fill="black" fill-opacity="0.1"/>
<path d="M104.879 42.9157C104.879 38.4008 108.38 35.3016 112.929 35.3016C117.461 35.3016 120.979 38.3835 120.979 42.9157C120.979 47.4306 117.478 50.5125 112.929 50.5125C108.38 50.5125 104.879 47.4306 104.879 42.9157ZM116.447 42.9157C116.447 40.8654 115.053 39.2338 112.912 39.2338C110.771 39.2338 109.377 40.8654 109.377 42.9157C109.377 44.966 110.771 46.5976 112.912 46.5976C115.07 46.5976 116.447 44.966 116.447 42.9157Z" fill="black" fill-opacity="0.1"/>
<path d="M130.945 50.2579L128.917 45.6351H127.302V50.2579H122.844V35.5563H130.691C134.135 35.5563 135.983 37.8397 135.983 40.5935C135.983 43.1316 134.515 44.474 133.337 45.0524L136 50.2536H130.945V50.2579ZM131.489 40.5763C131.489 39.7777 130.781 39.4324 130.039 39.4324H127.32V41.7546H130.039C130.786 41.7374 131.489 41.3921 131.489 40.5763Z" fill="black" fill-opacity="0.1"/>
<path d="M30.9954 25.7565C27.0173 25.7565 23.7979 28.9759 23.7979 32.954V35.6515C22.401 35.9044 21 36.2416 21 36.6791V50.757C21 50.757 21 51.1464 21.4375 51.331C23.0232 51.9733 29.2613 54.1811 30.6943 54.6869C30.879 54.7551 30.9312 54.7552 30.9793 54.7552C31.0476 54.7552 31.0797 54.7551 31.2643 54.6869C32.6974 54.1811 38.9516 51.9733 40.5372 51.331C40.9426 51.1624 40.9587 50.7731 40.9587 50.7731V36.6791C40.9587 36.2416 39.5778 35.8883 38.1768 35.6515V32.954C38.1969 28.9759 34.9574 25.7565 30.9954 25.7565ZM30.9954 29.1967C33.3397 29.1967 34.7567 30.6137 34.7567 32.958V35.3023C32.1274 35.1176 29.8835 35.1176 27.2381 35.3023V32.958C27.2381 30.6097 28.6551 29.1967 30.9954 29.1967ZM30.9793 38.7545C34.2509 38.7545 36.9966 39.0074 36.9966 39.461V48.2441C36.9966 48.3806 36.9806 48.3966 36.8602 48.4448C36.7437 48.497 31.2804 50.468 31.2804 50.468C31.2804 50.468 31.0596 50.5362 30.9954 50.5362C30.9272 50.5362 30.7104 50.4519 30.7104 50.4519C30.7104 50.4519 25.247 48.4809 25.1306 48.4287C25.0142 48.3766 24.9941 48.3605 24.9941 48.228V39.4449C24.962 38.9913 27.7078 38.7545 30.9793 38.7545Z" fill="black" fill-opacity="0.1"/>
</svg>
