<svg width="77" height="300" viewBox="0 0 77 300" fill="none" xmlns="http://www.w3.org/2000/svg">
<g clip-path="url(#clip0)">
<mask id="path-1-inside-1" fill="white">
<path fill-rule="evenodd" clip-rule="evenodd" d="M38.2505 0C17.2637 0 0.250488 17.0132 0.250488 38V285C0.250488 293.284 6.96622 300 15.2505 300H61.2505C69.5348 300 76.2505 293.284 76.2505 285V38C76.2505 17.0132 59.2373 0 38.2505 0ZM37.2505 55C46.6393 55 54.2505 47.3888 54.2505 38C54.2505 28.6112 46.6393 21 37.2505 21C27.8616 21 20.2505 28.6112 20.2505 38C20.2505 47.3888 27.8616 55 37.2505 55Z"/>
</mask>
<path d="M2.25049 38C2.25049 18.1177 18.3682 2 38.2505 2V-2C16.1591 -2 -1.74951 15.9086 -1.74951 38H2.25049ZM2.25049 285V38H-1.74951V285H2.25049ZM15.2505 298C8.07079 298 2.25049 292.18 2.25049 285H-1.74951C-1.74951 294.389 5.86165 302 15.2505 302V298ZM61.2505 298H15.2505V302H61.2505V298ZM74.2505 285C74.2505 292.18 68.4302 298 61.2505 298V302C70.6393 302 78.2505 294.389 78.2505 285H74.2505ZM74.2505 38V285H78.2505V38H74.2505ZM38.2505 2C58.1327 2 74.2505 18.1177 74.2505 38H78.2505C78.2505 15.9086 60.3419 -2 38.2505 -2V2ZM52.2505 38C52.2505 46.2843 45.5348 53 37.2505 53V57C47.7439 57 56.2505 48.4934 56.2505 38H52.2505ZM37.2505 23C45.5348 23 52.2505 29.7157 52.2505 38H56.2505C56.2505 27.5066 47.7439 19 37.2505 19V23ZM22.2505 38C22.2505 29.7157 28.9662 23 37.2505 23V19C26.7571 19 18.2505 27.5066 18.2505 38H22.2505ZM37.2505 53C28.9662 53 22.2505 46.2843 22.2505 38H18.2505C18.2505 48.4934 26.7571 57 37.2505 57V53Z" fill="black" mask="url(#path-1-inside-1)"/>
<path fill-rule="evenodd" clip-rule="evenodd" d="M57 210.086C57.2881 210.086 57.5626 210.144 57.8122 210.25C58.2162 210.42 58.5552 210.715 58.7817 211.086C58.9752 211.402 59.0867 211.774 59.0867 212.172L59.0867 221.413C59.0867 222.566 58.1524 223.5 57 223.5C55.8475 223.5 54.9133 222.566 54.9133 221.413L54.9133 214.259L51.9323 214.259L51.9323 216.644C51.9323 217.796 50.998 218.73 49.8456 218.73C48.6931 218.73 47.7589 217.796 47.7589 216.644L47.7589 214.259L44.7779 214.259L44.7779 221.413C44.7779 222.566 43.8436 223.5 42.6912 223.5C41.5387 223.5 40.6045 222.566 40.6045 221.413L40.6045 212.172C40.6045 211.38 41.046 210.691 41.6965 210.337C41.9922 210.177 42.331 210.086 42.6912 210.086L42.696 210.086L49.8399 210.086L49.8456 210.086L49.8512 210.086L57 210.086ZM57 131.089C57.2881 131.089 57.5626 131.147 57.8122 131.253C58.2162 131.424 58.5552 131.718 58.7817 132.089C58.9752 132.406 59.0867 132.778 59.0867 133.176L59.0867 142.417C59.0867 143.569 58.1524 144.504 57 144.504C55.8475 144.504 54.9133 143.569 54.9133 142.417L54.9133 135.262L51.9323 135.262L51.9323 137.647C51.9323 138.8 50.998 139.734 49.8456 139.734C48.6931 139.734 47.7589 138.8 47.7589 137.647L47.7589 135.262L44.7779 135.262L44.7779 142.417C44.7779 143.569 43.8436 144.504 42.6912 144.504C41.5387 144.504 40.6045 143.569 40.6045 142.417L40.6045 133.176C40.6045 132.455 40.9694 131.82 41.5245 131.445C41.8575 131.22 42.259 131.089 42.6912 131.089L42.6963 131.089L49.8404 131.089L49.8456 131.089L49.8507 131.089L57 131.089ZM57 181.468C58.1524 181.468 59.0867 182.402 59.0867 183.555L59.0867 188.622C59.0867 189.775 58.1524 190.709 57 190.709C55.8475 190.709 54.9133 189.775 54.9133 188.622L54.9133 188.026L44.7779 188.026L44.7779 188.622C44.7779 189.775 43.8436 190.709 42.6912 190.709C41.5387 190.709 40.6045 189.775 40.6045 188.622L40.6045 185.947L40.6045 185.939L40.6045 185.931L40.6045 183.555C40.6045 182.402 41.5387 181.468 42.6912 181.468C43.8436 181.468 44.7779 182.402 44.7779 183.555L44.7779 183.853L54.9133 183.853L54.9133 183.555C54.9133 182.402 55.8475 181.468 57 181.468ZM59.0867 149.869C59.0867 148.717 58.1524 147.783 57 147.783L42.6912 147.783C41.5387 147.783 40.6045 148.717 40.6045 149.869C40.6045 151.022 41.5387 151.956 42.6912 151.956L49.7886 151.956L41.5967 157.175C41.0421 157.528 40.7108 158.1 40.6436 158.706C40.6179 158.837 40.6045 158.972 40.6045 159.11C40.6045 160.263 41.5387 161.197 42.6912 161.197L57 161.197C58.1524 161.197 59.0867 160.263 59.0867 159.11C59.0867 157.958 58.1524 157.024 57 157.024L49.6012 157.024L57.8159 151.79C58.5629 151.473 59.0867 150.732 59.0867 149.869ZM59.0867 194.883C59.0867 193.73 58.1524 192.796 57 192.796L42.6912 192.796C41.5387 192.796 40.6045 193.73 40.6045 194.883C40.6045 196.035 41.5387 196.969 42.6912 196.969L51.8017 196.969L50.6977 197.983C50.1006 198.531 49.8957 199.347 50.0979 200.078C50.1559 200.479 50.3311 200.868 50.6261 201.189L52.2259 202.931L42.6912 202.931C41.5387 202.931 40.6045 203.866 40.6045 205.018C40.6045 206.17 41.5387 207.105 42.6912 207.105L57 207.105C58.1524 207.105 59.0867 206.17 59.0867 205.018C59.0867 204.374 58.7949 203.798 58.3363 203.415L54.9584 199.737L58.2859 196.681C58.5256 196.461 58.7022 196.197 58.8145 195.914C58.9877 195.61 59.0867 195.258 59.0867 194.883ZM59.0867 106.28L59.0867 103.135C59.0867 101.8 58.5528 100.52 57.6039 99.5812L57.4676 99.4463C56.5314 98.5197 55.2675 98 53.9503 98L45.7408 98C44.4237 98 43.1597 98.5197 42.2236 99.4463L42.0872 99.5812C41.1384 100.52 40.6045 101.8 40.6045 103.135L40.6045 106.28C40.6045 107.615 41.1384 108.894 42.0872 109.833L42.2236 109.968C43.1597 110.895 44.4237 111.414 45.7408 111.414L53.9503 111.414C55.2675 111.414 56.5314 110.895 57.4676 109.968L57.6039 109.833C58.5528 108.894 59.0867 107.615 59.0867 106.28ZM55.5095 105.519L55.5095 103.895C55.5095 103.319 55.2949 102.764 54.9076 102.337C54.4682 101.853 53.845 101.577 53.1914 101.577L46.4998 101.577C45.8462 101.577 45.2229 101.853 44.7835 102.337C44.3962 102.764 44.1817 103.319 44.1817 103.895L44.1817 105.519C44.1817 106.095 44.3962 106.651 44.7835 107.077C45.2229 107.561 45.8462 107.837 46.4998 107.837L53.1914 107.837C53.845 107.837 54.4682 107.561 54.9076 107.077C55.2949 106.651 55.5095 106.095 55.5095 105.519ZM59.0867 123.095L59.0867 118.193C59.0867 117.922 59.0552 117.654 58.9946 117.395C59.0544 117.201 59.0867 116.994 59.0867 116.78C59.0867 115.628 58.1524 114.694 57 114.694L55.5876 114.694L50.2048 114.694L42.6912 114.694C41.5387 114.694 40.6045 115.628 40.6045 116.78C40.6045 117.933 41.5387 118.867 42.6912 118.867L45.6864 118.867C45.677 118.986 45.6722 119.106 45.6722 119.226L45.6722 123.095C45.6722 124.358 46.1552 125.579 47.0144 126.504C47.9604 127.523 49.2939 128.108 50.684 128.108L54.0749 128.108C55.4649 128.108 56.7984 127.523 57.7445 126.504C58.6036 125.579 59.0867 124.358 59.0867 123.095ZM55.2113 121.699L55.2113 122.132C55.2113 122.696 54.9846 123.236 54.5822 123.631C54.1894 124.017 53.6608 124.233 53.1102 124.233L51.6486 124.233C51.098 124.233 50.5694 124.017 50.1765 123.631C49.7741 123.236 49.5474 122.696 49.5474 122.132L49.5474 121.699C49.5474 120.135 50.8153 118.867 52.3794 118.867C53.9434 118.867 55.2113 120.135 55.2113 121.699ZM59.0867 168.743L59.0867 172.756C59.0867 174.091 58.5528 175.37 57.6039 176.31L57.4676 176.444C56.5314 177.371 55.2675 177.891 53.9503 177.891L45.7408 177.891C44.4237 177.891 43.1597 177.371 42.2236 176.444L42.0872 176.31C41.1384 175.37 40.6045 174.091 40.6045 172.756L40.6045 168.743C40.6045 168.299 40.6734 167.865 40.8037 167.454C40.6759 167.184 40.6045 166.882 40.6045 166.563C40.6045 165.41 41.5387 164.476 42.6912 164.476L44.8711 164.476L54.8201 164.476L57 164.476C58.1524 164.476 59.0867 165.41 59.0867 166.563C59.0867 166.882 59.0152 167.184 58.8874 167.454C59.0178 167.865 59.0867 168.299 59.0867 168.743ZM55.2113 171.981L55.2113 170.65C55.2113 169.545 54.3159 168.65 53.2113 168.65L46.4797 168.65C45.3752 168.65 44.4797 169.545 44.4797 170.65L44.4797 171.981C44.4797 172.503 44.6843 173.005 45.0497 173.379L45.0838 173.414C45.46 173.799 45.9755 174.015 46.5138 174.015L53.1773 174.015C53.7155 174.015 54.231 173.799 54.6073 173.414L54.6414 173.379C55.0067 173.005 55.2113 172.503 55.2113 171.981Z" fill="black" fill-opacity="0.1"/>
<line x1="1.25049" y1="64" x2="75.2505" y2="64" stroke="black" stroke-opacity="0.25" stroke-width="2"/>
</g>
<defs>
<clipPath id="clip0">
<rect width="76" height="300" fill="white" transform="translate(0.250488)"/>
</clipPath>
</defs>
</svg>
