<svg width="60" height="60" viewBox="0 0 60 60" fill="none" xmlns="http://www.w3.org/2000/svg">
<g filter="url(#filter0_d)">
<g clip-path="url(#clip0)">
<path d="M10 25C10 13.9543 18.9543 5 30 5C41.0457 5 50 13.9543 50 25C50 36.0457 41.0457 45 30 45C18.9543 45 10 36.0457 10 25Z" fill="#2D9CDB"/>
<g filter="url(#filter1_d)">
<path fill-rule="evenodd" clip-rule="evenodd" d="M24 15C24 14.4477 24.4477 14 25 14H35C35.5523 14 36 14.4477 36 15V20.0929C35.2071 20.24 34.3659 20.2928 33.5 20.2881V18C33.5 17.1716 32.8284 16.5 32 16.5H28C27.1716 16.5 26.5 17.1716 26.5 18V19.7324C26.3841 19.7267 26.2694 19.7221 26.156 19.7186C25.3909 19.6951 24.6576 19.7219 24 19.8509V15ZM27.5 19.8007C28.0877 19.8505 28.6955 19.9153 29.3093 19.9809L29.3093 19.9809L29.5113 20.0024C30.5051 20.1083 31.5124 20.2113 32.5 20.2597V18C32.5 17.7239 32.2761 17.5 32 17.5H28C27.7239 17.5 27.5 17.7239 27.5 18V19.8007ZM29.4054 20.9968C31.5275 21.2228 33.886 21.4621 36 21.1082V35C36 35.5523 35.5523 36 35 36H25C24.4477 36 24 35.5523 24 35V20.8741C24.582 20.7332 25.2956 20.6926 26.1252 20.7181C27.0647 20.747 28.1066 20.8582 29.2166 20.9767L29.4054 20.9968Z" fill="white"/>
</g>
</g>
</g>
<defs>
<filter id="filter0_d" x="0" y="0" width="60" height="60" filterUnits="userSpaceOnUse" color-interpolation-filters="sRGB">
<feFlood flood-opacity="0" result="BackgroundImageFix"/>
<feColorMatrix in="SourceAlpha" type="matrix" values="0 0 0 0 0 0 0 0 0 0 0 0 0 0 0 0 0 0 127 0"/>
<feOffset dy="5"/>
<feGaussianBlur stdDeviation="5"/>
<feColorMatrix type="matrix" values="0 0 0 0 0 0 0 0 0 0 0 0 0 0 0 0 0 0 0.1 0"/>
<feBlend mode="normal" in2="BackgroundImageFix" result="effect1_dropShadow"/>
<feBlend mode="normal" in="SourceGraphic" in2="effect1_dropShadow" result="shape"/>
</filter>
<filter id="filter1_d" x="5" y="5" width="50" height="50" filterUnits="userSpaceOnUse" color-interpolation-filters="sRGB">
<feFlood flood-opacity="0" result="BackgroundImageFix"/>
<feColorMatrix in="SourceAlpha" type="matrix" values="0 0 0 0 0 0 0 0 0 0 0 0 0 0 0 0 0 0 127 0"/>
<feOffset dy="5"/>
<feGaussianBlur stdDeviation="5"/>
<feColorMatrix type="matrix" values="0 0 0 0 0 0 0 0 0 0 0 0 0 0 0 0 0 0 0.25 0"/>
<feBlend mode="normal" in2="BackgroundImageFix" result="effect1_dropShadow"/>
<feBlend mode="normal" in="SourceGraphic" in2="effect1_dropShadow" result="shape"/>
</filter>
<clipPath id="clip0">
<path d="M10 25C10 13.9543 18.9543 5 30 5C41.0457 5 50 13.9543 50 25C50 36.0457 41.0457 45 30 45C18.9543 45 10 36.0457 10 25Z" fill="white"/>
</clipPath>
</defs>
</svg>
