<svg width="30" height="30" viewBox="0 0 30 30" fill="none" xmlns="http://www.w3.org/2000/svg">
<path fill-rule="evenodd" clip-rule="evenodd" d="M22.7724 12.7307L25.5992 13.1927C25.8307 13.2304 26.0005 13.4303 26 13.6647V16.2951C26 16.5271 25.8335 16.726 25.6044 16.7662L22.7738 17.2631C22.6098 17.8303 22.3845 18.3765 22.1009 18.893L23.774 21.216C23.9113 21.4063 23.8897 21.6679 23.7242 21.8339L21.8646 23.6948C21.7001 23.8588 21.4418 23.8823 21.2514 23.7479L18.9053 22.1022C18.3878 22.3901 17.8382 22.6197 17.2648 22.7885L16.7649 25.6054C16.7248 25.8336 16.5263 26 16.2943 26H13.6636C13.4297 26 13.2303 25.8312 13.1925 25.6011L12.7257 22.798C12.1531 22.6326 11.6007 22.4044 11.0779 22.117L8.74859 23.7483C8.5587 23.8818 8.29994 23.8588 8.13588 23.6948L6.27624 21.8339C6.11123 21.6679 6.0897 21.4073 6.22554 21.2174L7.87138 18.9155C7.58105 18.3904 7.35051 17.8361 7.18358 17.2607L4.3946 16.7662C4.16645 16.7256 4 16.5271 4 16.2951V13.6647C4 13.4313 4.16932 13.2314 4.39986 13.1931L7.18884 12.7287C7.35673 12.152 7.58727 11.5977 7.87664 11.074L6.25089 8.74817C6.11744 8.5583 6.1404 8.30004 6.30446 8.136L8.16362 6.277C8.32959 6.112 8.58931 6.09 8.78015 6.2263L11.0904 7.8763C11.6093 7.59222 12.1603 7.366 12.7343 7.201L13.1915 4.40126C13.2293 4.16978 13.4293 4 13.6636 4H16.2943C16.5267 4 16.7252 4.16739 16.7654 4.396L17.2585 7.21104C17.8292 7.377 18.3792 7.60561 18.9001 7.89352L21.2165 6.2287C21.4069 6.09143 21.668 6.11296 21.834 6.27843L23.6941 8.13743C23.8582 8.30196 23.8811 8.5607 23.7477 8.75057L22.0975 11.1022C22.3807 11.6182 22.6069 12.1634 22.7724 12.7307ZM11.6519 15C11.6519 16.849 13.1509 18.3478 15 18.3478C16.8491 18.3478 18.3481 16.849 18.3481 15C18.3481 13.151 16.8491 11.6522 15 11.6522C13.1509 11.6522 11.6519 13.151 11.6519 15Z" fill="black"/>
</svg>
