<svg width="200" height="300" viewBox="0 0 200 300" fill="none" xmlns="http://www.w3.org/2000/svg">
<rect x="111" y="181" width="68" height="28" stroke="black" stroke-opacity="0.25" stroke-width="2"/>
<rect x="21" y="181" width="68" height="28" stroke="black" stroke-opacity="0.25" stroke-width="2"/>
<rect x="21" y="41" width="158" height="118" stroke="black" stroke-opacity="0.25" stroke-width="2"/>
<path d="M30 2H170V-2H30V2ZM198 30V270H202V30H198ZM170 298H30V302H170V298ZM2 270V30H-2V270H2ZM30 298C14.536 298 2 285.464 2 270H-2C-2 287.673 12.3269 302 30 302V298ZM198 270C198 285.464 185.464 298 170 298V302C187.673 302 202 287.673 202 270H198ZM170 2C185.464 2 198 14.536 198 30H202C202 12.3269 187.673 -2 170 -2V2ZM30 -2C12.3269 -2 -2 12.3269 -2 30H2C2 14.536 14.536 2 30 2V-2Z" fill="black"/>
</svg>
