<svg width="31" height="30" viewBox="0 0 31 30" fill="none" xmlns="http://www.w3.org/2000/svg">
<rect x="15.4286" y="6.5" width="11.5714" height="17.2857" rx="1.5" stroke="white"/>
<path fill-rule="evenodd" clip-rule="evenodd" d="M5.5 6C4.39543 6 3.5 6.89543 3.5 8V22.2857C3.5 23.3903 4.39543 24.2857 5.5 24.2857H20.9286C22.0331 24.2857 22.9286 23.3903 22.9286 22.2857V8C22.9286 6.89543 22.0331 6 20.9286 6H5.5ZM8.75713 16.9714C9.89326 16.9714 10.8143 16.0504 10.8143 14.9143C10.8143 13.7782 9.89326 12.8571 8.75713 12.8571C7.621 12.8571 6.69999 13.7782 6.69999 14.9143C6.69999 16.0504 7.621 16.9714 8.75713 16.9714Z" fill="white"/>
</svg>
