<svg width="30" height="30" viewBox="0 0 30 30" fill="none" xmlns="http://www.w3.org/2000/svg">
<rect x="14.5" y="14.5" width="1" height="1" fill="black" stroke="black"/>
<rect x="14.5" y="10.5" width="1" height="1" fill="black" stroke="black"/>
<rect x="10.5" y="14.5" width="1" height="1" fill="black" stroke="black"/>
<rect x="6.5" y="14.5" width="1" height="1" fill="black" stroke="black"/>
<rect x="14.5" y="6.5" width="1" height="1" fill="black" stroke="black"/>
<rect x="14.5" y="18.5" width="1" height="1" fill="black" stroke="black"/>
<rect x="14.5" y="22.5" width="1" height="1" fill="black" stroke="black"/>
<rect x="18.5" y="14.5" width="1" height="1" fill="black" stroke="black"/>
<rect x="18.5" y="18.5" width="1" height="1" fill="black" stroke="black"/>
<rect x="18.5" y="22.5" width="1" height="1" fill="black" stroke="black"/>
<rect x="22.5" y="14.5" width="1" height="1" fill="black" stroke="black"/>
<rect x="22.5" y="18.5" width="1" height="1" fill="black" stroke="black"/>
<rect x="22.5" y="22.5" width="1" height="1" fill="black" stroke="black"/>
<mask id="path-14-inside-1" fill="white">
<rect x="6" y="6" width="6" height="6" rx="1"/>
</mask>
<rect x="6" y="6" width="6" height="6" rx="1" stroke="black" stroke-width="4" mask="url(#path-14-inside-1)"/>
<mask id="path-15-inside-2" fill="white">
<rect x="6" y="18" width="6" height="6" rx="1"/>
</mask>
<rect x="6" y="18" width="6" height="6" rx="1" stroke="black" stroke-width="4" mask="url(#path-15-inside-2)"/>
<mask id="path-16-inside-3" fill="white">
<rect x="18" y="6" width="6" height="6" rx="1"/>
</mask>
<rect x="18" y="6" width="6" height="6" rx="1" stroke="black" stroke-width="4" mask="url(#path-16-inside-3)"/>
</svg>
